<?xml version="1.0" encoding="UTF-8"?>
<svg version="1.1" xmlns="http://www.w3.org/2000/svg" viewBox="248 394 1140 589" width="1140" height="589">
<path d="M0 0 C106.15241636 0 106.15241636 0 125 6 C125.93457031 6.27457031 126.86914062 6.54914062 127.83203125 6.83203125 C145.14928151 12.38470739 160.08151694 25.19101604 168.65625 41.06640625 C177.75752037 59.60355252 179.57483077 83.2316755 173 103 C169.32382207 112.16399751 164.62534839 120.63679378 158 128 C157.51660156 128.58652344 157.03320312 129.17304687 156.53515625 129.77734375 C148.82562396 138.4284983 136.82887755 144.3564012 126 148 C131.24427806 156.07342807 136.84129027 163.89824437 142.40771484 171.75048828 C143.93842274 173.9130063 145.46436785 176.07878381 146.98828125 178.24609375 C152.1557978 185.59269386 157.36089288 192.90973664 162.625 200.1875 C163.16334473 200.93249756 163.70168945 201.67749512 164.25634766 202.44506836 C166.84549165 206.02667822 169.43999041 209.60421338 172.04296875 213.17578125 C172.96630575 214.450405 173.88949148 215.72513836 174.8125 217 C175.23934082 217.58160889 175.66618164 218.16321777 176.10595703 218.76245117 C179 222.77318424 179 222.77318424 179 225 C156.79694882 227.04129891 156.79694882 227.04129891 151.04638672 223.94970703 C148.09012648 221.1453615 146.47353382 217.52954584 144.87646484 213.85107422 C143.42138663 210.77798145 141.34691682 208.1422137 139.3125 205.4375 C138.4744433 204.27589819 137.63994556 203.11172235 136.80859375 201.9453125 C136.1431958 201.01380371 136.1431958 201.01380371 135.46435547 200.06347656 C132.57796836 195.99616349 129.72953022 191.90219991 126.875 187.8125 C120.54000753 178.70484591 120.54000753 178.70484591 113.94615173 169.7844696 C112 167 112 167 110.30958557 163.71418762 C106.89921399 157.32752771 106.89921399 157.32752771 101.16053391 153.25762558 C95.78126284 152.08781105 90.30956312 152.36022487 84.83984375 152.51171875 C83.0815041 152.51353016 81.32315004 152.509599 79.56483459 152.50019836 C74.96167756 152.49087162 70.3628763 152.5589683 65.76062012 152.64379883 C60.22584796 152.72947567 54.69050952 152.71796395 49.15518951 152.72293854 C40.76736564 152.74126202 32.38966791 152.88216216 24 153 C24 176.76 24 200.52 24 225 C16.08 225 8.16 225 0 225 C0 150.75 0 76.5 0 0 Z " fill="#FAFAFA" transform="translate(501,738)"/>
<path d="M0 0 C130.059651 0 130.059651 0 157.9375 26.375 C162.81294015 31.44885922 166.05985301 36.64240943 169 43 C169.37640625 43.71414063 169.7528125 44.42828125 170.140625 45.1640625 C179.3035156 63.42146392 177.84446388 85.62386177 171.6328125 104.44140625 C164.85821621 123.72986177 151.17963551 136.54642101 133.08374023 145.37036133 C115.91946697 153.27924856 97.29386105 154.32806161 78.6875 154.1953125 C77.27409016 154.19235941 75.86067811 154.1903268 74.44726562 154.18920898 C69.29814298 154.17886826 64.14906765 154.15094741 59 154.125 C47.45 154.08375 35.9 154.0425 24 154 C24 177.43 24 200.86 24 225 C16.08 225 8.16 225 0 225 C0 150.75 0 76.5 0 0 Z " fill="#FAFAFA" transform="translate(258,738)"/>
<path d="M0 0 C7.92 0 15.84 0 24 0 C24.85722656 1.91941406 25.71445313 3.83882812 26.59765625 5.81640625 C34.37650811 23.23234347 34.37650811 23.23234347 42.39453125 40.5390625 C44.31975841 44.68930888 46.15908587 48.8743659 48 53.0625 C50.28867067 58.26180402 52.65316035 63.38248689 55.25 68.4375 C60.04854572 77.8829444 64.20337064 87.6216565 68.47987366 97.311203 C71.42441487 103.97471063 74.41414225 110.61770563 77.41256714 117.2571106 C78.00019365 118.55840173 78.58739147 119.85988655 79.17410278 121.16159058 C82.57253558 128.70102784 86.02207007 136.21391701 89.52949524 143.70318604 C91.90453572 148.77968385 94.21705983 153.88158818 96.5 159 C99.12250502 164.85499849 101.77315539 170.69283093 104.5 176.5 C107.62527325 183.15567452 110.64531239 189.85543347 113.64868164 196.56689453 C116.54665243 203.03020983 119.5381203 209.44391155 122.58984375 215.8359375 C124 219 124 219 126 225 C117.75 225 109.5 225 101 225 C95.42428725 214.20829791 90.59327625 203.1344822 85.75 192 C84.52792513 189.19684167 83.30494278 186.39408403 82.08087158 183.59179688 C81.32494777 181.86060436 80.57028926 180.12885864 79.81707764 178.39648438 C79.47622131 177.61466797 79.13536499 176.83285156 78.78417969 176.02734375 C78.48695007 175.34406006 78.18972046 174.66077637 77.88348389 173.95678711 C77.26778537 172.59310528 76.59785948 171.25317706 75.88848877 169.93579102 C75 168 75 168 75 165 C12.63 165.495 12.63 165.495 -51 166 C-54.3 173.26 -57.6 180.52 -61 188 C-63.09932 192.56488398 -65.20086456 197.12835349 -67.3125 201.6875 C-70.90316225 209.44581007 -74.47016885 217.21379685 -78 225 C-85.92 225 -93.84 225 -102 225 C-101.26539565 221.32697824 -100.6737787 218.93399623 -99.1796875 215.6640625 C-98.81294922 214.85517578 -98.44621094 214.04628906 -98.06835938 213.21289062 C-97.47764648 211.93188477 -97.47764648 211.93188477 -96.875 210.625 C-96.46830078 209.73232422 -96.06160156 208.83964844 -95.64257812 207.91992188 C-92.73981281 201.56300255 -89.78278454 195.23185597 -86.8125 188.90625 C-84.25600139 183.4280387 -81.80093298 177.90383435 -79.3293457 172.38696289 C-77.15824784 167.54897572 -74.95044239 162.73317596 -72.6875 157.9375 C-69.35180165 150.83844966 -66.17541331 143.67198694 -63 136.5 C-57.17462419 123.35344682 -51.2645489 110.29612949 -44.67578125 97.51171875 C-43.41293976 94.86534462 -42.29319963 92.27433866 -41.2265625 89.55078125 C-38.69687528 83.12143727 -35.84318948 76.84112718 -32.99145508 70.55029297 C-32.06475338 68.50497343 -31.14250838 66.45768646 -30.22070312 64.41015625 C-27.71931926 58.87004676 -25.2125087 53.34179478 -22.45703125 47.921875 C-18.96294967 41.04368294 -15.9202647 33.95342266 -12.80761719 26.89697266 C-8.78548977 17.79058717 -4.50667163 8.87643172 0 0 Z " fill="#FAFAFA" transform="translate(1252,738)"/>
<path d="M0 0 C6.6 0 13.2 0 20 0 C25.16373156 6.07087359 25.16373156 6.07087359 26.32421875 9.08984375 C28.00890805 13.13936387 30.15889091 16.76072042 32.4375 20.5 C33.28809124 21.9448908 34.13554675 23.39163048 34.98046875 24.83984375 C37.29252713 28.79215487 39.60827027 32.74229067 41.92578125 36.69140625 C48.71613938 48.26437024 55.49611331 59.84320072 62.25 71.4375 C67.16738653 79.87836272 72.12232478 88.29614619 77.09985352 96.70166016 C81.15570772 103.55650353 85.17789225 110.4305156 89.1875 117.3125 C98.68342903 133.6082712 108.27210851 149.84142312 118 166 C118.25990723 165.51982422 118.51981445 165.03964844 118.78759766 164.54492188 C126.04762807 151.16405958 133.61923047 137.98603215 141.32617188 124.85839844 C143.81803287 120.60304422 146.28467317 116.333263 148.75 112.0625 C152.03344829 106.37826984 155.34535417 100.71238371 158.6875 95.0625 C163.11821114 87.56451201 167.43762258 80.0039114 171.75 72.4375 C178.50854907 60.58039985 185.35081082 48.77473017 192.24707031 36.99707031 C194.09282241 33.84129695 195.93373534 30.6827413 197.7734375 27.5234375 C198.39718262 26.45254883 199.02092773 25.38166016 199.66357422 24.27832031 C200.84526544 22.24924243 202.02660872 20.21996186 203.20751953 18.19042969 C204.28334055 16.34442226 205.37909867 14.50986512 206.49609375 12.68847656 C208.07988782 10.03387183 208.07988782 10.03387183 209.03515625 7.08496094 C210.15625 4.3046875 210.15625 4.3046875 214 0 C220.6 0 227.2 0 234 0 C234 74.25 234 148.5 234 225 C226.41 225 218.82 225 211 225 C210.67 166.59 210.34 108.18 210 48 C205.38 55.92 200.76 63.84 196 72 C191 80.5 191 80.5 188.609375 84.55859375 C183.65206145 92.98641346 178.73794307 101.4396041 173.81445312 109.88720703 C170.87758972 114.92555585 167.9387157 119.96273143 165 125 C163.83332321 126.99999409 162.66665655 128.9999941 161.5 131 C159.16666667 135 156.83333333 139 154.5 143 C153.92193604 143.99104736 153.34387207 144.98209473 152.74829102 146.00317383 C151.5876046 147.99275989 150.42663689 149.98218189 149.26538086 151.97143555 C146.2548278 157.12942341 143.24997674 162.29061568 140.25390625 167.45703125 C139.63580078 168.52115234 139.01769531 169.58527344 138.38085938 170.68164062 C137.21234695 172.6935906 136.04553567 174.70653007 134.88085938 176.72070312 C133.27066332 179.49070426 131.63621998 182.24531113 130 185 C129.41887451 186.01658691 128.83774902 187.03317383 128.23901367 188.08056641 C127.64967041 189.07362793 127.06032715 190.06668945 126.453125 191.08984375 C125.93008789 191.98952881 125.40705078 192.88921387 124.86816406 193.81616211 C122.50538506 196.57819271 120.71751433 197.07821346 117.1875 197.75 C113.9464967 197.43921886 111.91766279 196.97507858 109.64208984 194.55712891 C106.67695628 190.43744998 104.45131775 185.91561472 102.20458984 181.37695312 C100.36795599 177.75282114 98.27911624 174.29350519 96.1875 170.8125 C95.35158275 169.39398376 94.51698303 167.97469042 93.68359375 166.5546875 C91.78414048 163.32823834 89.87971455 160.10477216 87.97265625 156.8828125 C81.68793536 146.26439935 75.44018809 135.62567366 69.23144531 124.96264648 C65.34558188 118.29370829 61.43304918 111.64120714 57.5 105 C52.44888638 96.47086897 47.43874503 87.91865114 42.45898438 79.34765625 C36.36063049 68.86540556 30.17006393 58.44164665 24 48 C23.67 106.41 23.34 164.82 23 225 C15.41 225 7.82 225 0 225 C0 150.75 0 76.5 0 0 Z " fill="#FAFAFA" transform="translate(862,738)"/>
<path d="M0 0 C11.67375 -0.020625 23.3475 -0.04125 35.375 -0.0625 C40.87679932 -0.07615601 40.87679932 -0.07615601 46.48974609 -0.09008789 C51.01489258 -0.09460449 51.01489258 -0.09460449 53.14224243 -0.09544373 C54.60847274 -0.09696591 56.07470191 -0.10045471 57.54092407 -0.10557556 C79.30800644 -0.17770966 99.09827317 2.6519301 115.51953125 18.33203125 C119.15651017 22.24393141 121.73099066 26.17744316 124 31 C124.41121094 31.82113281 124.82242188 32.64226563 125.24609375 33.48828125 C130.76709898 46.68902387 129.57073798 64.32072472 125.328125 77.765625 C118.63239758 94.0716906 106.91836815 102.28820414 91.15234375 108.921875 C81.05048935 112.37678431 71.37614685 112.26196992 60.83984375 112.1953125 C59.28031558 112.19236683 57.72078543 112.19032962 56.16125488 112.18920898 C50.41997283 112.17878233 44.67873328 112.15085986 38.9375 112.125 C26.088125 112.08375 13.23875 112.0425 0 112 C0 75.04 0 38.08 0 0 Z " fill="#010101" transform="translate(525,759)"/>
<path d="M0 0 C11.4675 -0.0825 22.935 -0.165 34.75 -0.25 C38.32682617 -0.28641602 41.90365234 -0.32283203 45.58886719 -0.36035156 C70.07022612 -0.50749318 96.34005426 -0.52625674 115.10546875 17.80859375 C127.71403451 32.39293476 129.12109979 49.34772217 127.796875 67.8359375 C125.79946461 80.90594898 117.85017077 92.55079896 107.44140625 100.3359375 C91.37176586 111.28900439 74.02425829 112.16314444 55.2734375 112.09765625 C53.85392293 112.09618256 52.43440781 112.09516449 51.01489258 112.09460449 C45.80158667 112.08940103 40.58829245 112.0754399 35.375 112.0625 C23.70125 112.041875 12.0275 112.02125 0 112 C0 75.04 0 38.08 0 0 Z " fill="#000000" transform="translate(282,759)"/>
<path d="M0 0 C14.01780842 9.85336666 23.5273328 23.11758088 27 40 C27.42650862 43.74146482 27.52542844 47.42376876 27.5 51.1875 C27.49427979 52.18563721 27.48855957 53.18377441 27.48266602 54.2121582 C27.10055375 70.22098956 21.36350852 84.60016535 10.25 96.3125 C-5.75008429 111.37140286 -23.02682951 114.60751998 -44.21875 114.3359375 C-59.36776903 113.83291025 -72.81441462 107.12768057 -83.8125 96.75 C-96.23188938 83.39630793 -101.79122218 69.26862608 -101.51953125 51.20581055 C-100.96797451 36.96998343 -97.43928011 25.61604335 -89 14 C-88.19949219 12.87851562 -88.19949219 12.87851562 -87.3828125 11.734375 C-66.79144275 -14.28655991 -26.86584065 -16.38161015 0 0 Z " fill="#010101" transform="translate(590,445)"/>
<path d="M0 0 C71.30576285 0 71.30576285 0 86.80078125 14.66796875 C93.85130365 22.14427758 96.38701827 30.12363744 96.25 40.3125 C96.23658569 41.43507202 96.23658569 41.43507202 96.22290039 42.58032227 C95.97349527 54.5194619 93.49189964 62.22302693 85.04296875 71.04296875 C80.85333628 74.91858537 74.97962942 80 69 80 C72.11977642 84.73141447 75.35075164 89.37442423 78.625 94 C79.14626465 94.73895508 79.6675293 95.47791016 80.20458984 96.23925781 C82.76059483 99.85787161 85.33002507 103.46513974 87.9375 107.046875 C88.3917334 107.67335938 88.8459668 108.29984375 89.31396484 108.9453125 C90.16391146 110.11529488 91.01815277 111.28217405 91.87744141 112.4453125 C94.10195076 115.51231153 95.76486266 118.41411739 97 122 C92.20524357 122.59851329 87.77950857 122.80802742 83 122 C79.62924755 119.34290402 78.05487174 115.71541841 76 112 C74.08247252 109.14323192 72.07028968 106.35628486 70.0625 103.5625 C69.0944013 102.18926064 68.12695535 100.81556087 67.16015625 99.44140625 C66.64146973 98.74716553 66.1227832 98.0529248 65.58837891 97.33764648 C64 95 64 95 62.59521484 92.03930664 C60.69502349 88.50611166 59.22102848 86.42649194 56 84 C49.05525045 82.16965098 41.59467537 82.97043949 34.5 83.3125 C32.51315594 83.3677261 30.52616486 83.41790765 28.5390625 83.46289062 C23.68612067 83.57428954 18.85367038 83.78924852 14 84 C14 96.54 14 109.08 14 122 C9.38 122 4.76 122 0 122 C0 81.74 0 41.48 0 0 Z " fill="#F5F5F5" transform="translate(888,436)"/>
<path d="M0 0 C63.46955054 0 63.46955054 0 72.125 4.625 C72.81368164 4.98255371 73.50236328 5.34010742 74.21191406 5.70849609 C81.72209918 9.7304119 87.83493356 14.41362898 92 22 C92.556875 22.95519531 92.556875 22.95519531 93.125 23.9296875 C97.76535465 33.24262149 97.33972168 44.79090527 95.1875 54.765625 C91.50112039 65.56876524 84.94402691 72.96830669 74.8125 78 C64.21846681 82.94626017 54.93098206 84.16998742 43.37109375 84.09765625 C42.59382935 84.09664917 41.81656494 84.09564209 41.01574707 84.09460449 C38.15631603 84.08943525 35.29690628 84.07547486 32.4375 84.0625 C26.023125 84.041875 19.60875 84.02125 13 84 C13 96.87 13 109.74 13 123 C8.71 123 4.42 123 0 123 C0 82.41 0 41.82 0 0 Z " fill="#030303" transform="translate(646,436)"/>
<path d="M0 0 C4.82519593 -0.67950839 9.19176059 -0.89003581 14 0 C17.88644089 3.04000744 20.25805296 6.93803598 23 11 C24.77745774 13.21564349 26.6374165 15.35578876 28.5 17.5 C31.8590724 21.44245369 35.17234696 25.41657916 38.4375 29.4375 C41.36715228 33.0420186 44.35397163 36.58516785 47.39599609 40.09448242 C51.95812214 45.36397645 56.46843643 50.67371764 60.8125 56.125 C61.47076782 56.92333252 61.47076782 56.92333252 62.14233398 57.73779297 C64.9733292 61.35482072 64.9733292 61.35482072 65.08203125 63.984375 C63.43459513 67.05324517 61.17981848 69.54257033 58.875 72.125 C54.19012311 77.52487744 49.92388497 83.01379409 46 89 C45.34257813 89.94875 44.68515625 90.8975 44.0078125 91.875 C39.85977471 98.13618911 36.91166588 104.21979429 34.5 111.3125 C34.24468506 112.05306641 33.98937012 112.79363281 33.72631836 113.55664062 C30.13288378 124.8355066 32.7159114 135.64942829 37.953125 146.0390625 C42.53180739 154.61691215 47.96875609 162.37578636 54 170 C55.40078056 171.81621548 56.79533862 173.63710339 58.18969727 175.45825195 C60.11978024 177.97734833 62.0598068 180.48868522 64 183 C62.35 185.64 60.7 188.28 59 191 C57.37191406 190.24203125 57.37191406 190.24203125 55.7109375 189.46875 C54.26589243 188.81191133 52.82056481 188.15569402 51.375 187.5 C50.30572266 186.99919922 50.30572266 186.99919922 49.21484375 186.48828125 C43.83004033 184.06758981 39.79016005 183.06994665 34 185 C33.01 184.67 32.02 184.34 31 184 C27.10382851 183.63924338 24.76222841 183.57457019 21.3125 185.5 C15.21373507 192.09325938 14.28785513 198.10690856 14.5546875 207.0546875 C15.7591201 217.72553769 20.41133465 227.56900642 27 236 C27.99 236.66 28.98 237.32 30 238 C29.38722388 240.96175123 28.74627478 242.38058783 27 245 C23.38870462 244.39126228 21.2721223 242.89845341 18.4375 240.625 C17.29087891 239.71621094 17.29087891 239.71621094 16.12109375 238.7890625 C15.07115234 237.90347656 15.07115234 237.90347656 14 237 C13.2265625 236.36191406 13.2265625 236.36191406 12.4375 235.7109375 C10.24463459 233.10095095 8.95762819 230.08132353 7.5625 227 C7.25393066 226.33009033 6.94536133 225.66018066 6.62744141 224.9699707 C4.48469112 220.25107324 2.66433813 215.47350523 0.97265625 210.57421875 C-0.40111801 206.93840656 -2.14598158 203.53274102 -3.94921875 200.09375 C-6.10508347 195.79804928 -6.21588811 191.89067719 -6.25 187.1875 C-6.270625 186.48818359 -6.29125 185.78886719 -6.3125 185.06835938 C-6.35692998 179.13140386 -5.01953553 175.07893363 -0.875 170.8125 C-0.25625 170.214375 0.3625 169.61625 1 169 C1.33 168.01 1.66 167.02 2 166 C5.0625 164.3125 5.0625 164.3125 8 163 C8 162.34 8 161.68 8 161 C16.34726325 160.56131171 23.14350921 160.82445363 30.890625 164.125 C32.9272849 165.12771914 32.9272849 165.12771914 35 165 C34.40574219 164.23558594 33.81148437 163.47117187 33.19921875 162.68359375 C27.18277785 154.91830188 21.33132213 147.04533877 15.54199219 139.10986328 C2.51850034 120.92180724 2.51850034 120.92180724 -11.2421875 103.3046875 C-13 101 -13 101 -13 99 C-11.63671875 97.6953125 -11.63671875 97.6953125 -9.6875 96.125 C4.70657248 83.79450251 17.59484327 67.7649734 19.2265625 48.296875 C19.71450915 32.77129983 12.0876706 18.1727243 3.2265625 5.796875 C1.9548146 3.93380483 0.96425781 2.03665669 0 0 Z " fill="#0BF8FA" transform="translate(744,728)"/>
<path d="M0 0 C2.81661172 3.38258624 4.52433958 7.08405682 6.2578125 11.08984375 C6.71448807 12.12851593 6.71448807 12.12851593 7.1803894 13.18817139 C8.16697968 15.43577235 9.14606204 17.68655692 10.125 19.9375 C10.804297 21.4888592 11.48398633 23.04004666 12.1640625 24.59106445 C16.18380574 33.77164517 20.14360298 42.97712007 24.06884766 52.19848633 C27.20899132 59.54917518 30.55641132 66.7866638 34 74 C39.54278231 85.61578877 45.00571397 97.2525687 50.14746094 109.05273438 C50.7198418 110.36009685 51.30137505 111.66348724 51.89160156 112.96289062 C53.17564079 115.83132913 54 117.81783653 54 121 C18.69 121 -16.62 121 -53 121 C-52.12909373 116.64546866 -51.03862586 113.51895398 -49.234375 109.51953125 C-48.95909973 108.90663742 -48.68382446 108.29374359 -48.40020752 107.66227722 C-47.81757998 106.36774689 -47.23246625 105.07433298 -46.64501953 103.78198242 C-45.76169335 101.8382311 -44.88602889 99.89118018 -44.01171875 97.94335938 C-41.14386866 91.57785085 -38.20367995 85.26434175 -35.00292969 79.05737305 C-34.03346907 77.06865722 -33.23994949 75.08361426 -32.5 73 C-31.42169101 69.96498425 -30.10773044 67.17205157 -28.625 64.3125 C-26.07069862 59.34238347 -24.11611208 54.22928864 -22.2109375 48.98046875 C-21.04163612 46.10247857 -19.62229991 43.64064577 -18 41 C-17.27510174 39.08890458 -16.55333291 37.1764529 -15.859375 35.25390625 C-14.95718161 32.88769904 -13.93851271 30.61070726 -12.875 28.3125 C-9.77427786 21.6069506 -6.90863413 14.80234442 -4.03466797 7.99731445 C-3.4683667 6.66446411 -3.4683667 6.66446411 -2.890625 5.3046875 C-2.38063965 4.0978833 -2.38063965 4.0978833 -1.86035156 2.86669922 C-1 1 -1 1 0 0 Z " fill="#040404" transform="translate(1263,763)"/>
<path d="M0 0 C1.79244141 0.01740234 1.79244141 0.01740234 3.62109375 0.03515625 C5.41740234 0.04869141 5.41740234 0.04869141 7.25 0.0625 C8.17683594 0.07410156 9.10367187 0.08570313 10.05859375 0.09765625 C15.28275518 10.11983906 20.02292103 20.33799533 24.62109375 30.66015625 C24.90657074 31.30092102 25.19204773 31.94168579 25.48617554 32.60186768 C26.33461607 34.50667719 27.18294556 36.41153612 28.03125 38.31640625 C30.9530713 44.8760683 33.95673975 51.38951737 37.01806641 57.88525391 C44.61412753 74.03624075 52.07490837 90.23681587 59.27612305 106.56738281 C59.74445557 107.62924805 60.21278809 108.69111328 60.6953125 109.78515625 C61.10483154 110.71714844 61.51435059 111.64914062 61.9362793 112.609375 C62.64333404 114.17698474 63.3948577 115.72597841 64.20629883 117.2421875 C65.05859375 119.09765625 65.05859375 119.09765625 65.05859375 122.09765625 C60.76859375 122.09765625 56.47859375 122.09765625 52.05859375 122.09765625 C46.69546678 111.60571368 41.79205475 101.29803926 38.05859375 90.09765625 C15.28859375 90.42765625 -7.48140625 90.75765625 -30.94140625 91.09765625 C-38.35800405 106.28205766 -38.35800405 106.28205766 -43.94140625 122.09765625 C-48.56140625 122.09765625 -53.18140625 122.09765625 -57.94140625 122.09765625 C-55.65734205 114.67833207 -52.62292535 107.8014285 -49.31640625 100.78515625 C-48.23617709 98.47042622 -47.15675804 96.15531798 -46.078125 93.83984375 C-45.54622559 92.69999023 -45.01432617 91.56013672 -44.46630859 90.38574219 C-41.97593955 85.01585901 -39.55628654 79.61483459 -37.14794922 74.20776367 C-35.02698103 69.46131486 -32.84880092 64.74342652 -30.64453125 60.03515625 C-26.87327874 51.97787519 -23.18122433 43.88565575 -19.50390625 35.78515625 C-18.8442412 34.33398305 -18.1845732 32.88281119 -17.52490234 31.43164062 C-13.67059599 22.94608842 -9.83829158 14.45151767 -6.11157227 5.90893555 C-3.57010155 0.11852927 -3.57010155 0.11852927 0 0 Z " fill="#F6F6F6" transform="translate(1053.94140625,435.90234375)"/>
<path d="M0 0 C14.01780842 9.85336666 23.5273328 23.11758088 27 40 C27.42650862 43.74146482 27.52542844 47.42376876 27.5 51.1875 C27.49427979 52.18563721 27.48855957 53.18377441 27.48266602 54.2121582 C27.10055375 70.22098956 21.36350852 84.60016535 10.25 96.3125 C-5.75008429 111.37140286 -23.02682951 114.60751998 -44.21875 114.3359375 C-59.36776903 113.83291025 -72.81441462 107.12768057 -83.8125 96.75 C-96.23188938 83.39630793 -101.79122218 69.26862608 -101.51953125 51.20581055 C-100.96797451 36.96998343 -97.43928011 25.61604335 -89 14 C-88.19949219 12.87851562 -88.19949219 12.87851562 -87.3828125 11.734375 C-66.79144275 -14.28655991 -26.86584065 -16.38161015 0 0 Z M-60 6 C-60.86496094 6.42410156 -61.72992187 6.84820312 -62.62109375 7.28515625 C-75.28783305 14.20655565 -83.0135887 24.93802863 -87.38916016 38.51953125 C-88.47108549 42.91296105 -88.53108458 47.24352268 -88.5 51.75 C-88.49427979 52.71719971 -88.48855957 53.68439941 -88.48266602 54.6809082 C-88.28245319 62.73458697 -86.89299949 68.85788135 -83 76 C-82.50371094 76.96035156 -82.00742187 77.92070313 -81.49609375 78.91015625 C-74.84171304 90.56734849 -64.25012115 97.94745608 -51.5078125 101.7421875 C-35.41933284 105.49445272 -19.93979791 102.44382024 -6 94 C5.22315291 86.08644838 11.06590237 74.20728987 14 61 C14.81540751 45.17795814 13.42349257 31.24696893 2.9609375 18.51953125 C-2.06804842 13.21510617 -7.44183615 9.21555277 -14 6 C-14.83402344 5.58621094 -15.66804687 5.17242187 -16.52734375 4.74609375 C-29.44834373 -0.57431801 -47.4931713 -0.20508812 -60 6 Z " fill="#F6F6F6" transform="translate(590,445)"/>
<path d="M0 0 C9.4359375 -0.12375 9.4359375 -0.12375 19.0625 -0.25 C21.01422119 -0.28641602 22.96594238 -0.32283203 24.97680664 -0.36035156 C38.1213144 -0.5033648 51.79628784 -0.05726633 62.1953125 9.06640625 C69.29025402 16.6681293 70.31646448 23.27367756 70.2109375 33.45703125 C69.72145154 41.67858242 66.69710879 48.05575635 61 54 C49.73761446 63.89958547 33.13283532 62.38084459 19.1875 62.1875 C9.6896875 62.0946875 9.6896875 62.0946875 0 62 C0 41.54 0 21.08 0 0 Z " fill="#040404" transform="translate(901,447)"/>
<path d="M0 0 C63.46955054 0 63.46955054 0 72.125 4.625 C72.81368164 4.98255371 73.50236328 5.34010742 74.21191406 5.70849609 C81.72209918 9.7304119 87.83493356 14.41362898 92 22 C92.556875 22.95519531 92.556875 22.95519531 93.125 23.9296875 C97.76535465 33.24262149 97.33972168 44.79090527 95.1875 54.765625 C91.50112039 65.56876524 84.94402691 72.96830669 74.8125 78 C64.21846681 82.94626017 54.93098206 84.16998742 43.37109375 84.09765625 C42.59382935 84.09664917 41.81656494 84.09564209 41.01574707 84.09460449 C38.15631603 84.08943525 35.29690628 84.07547486 32.4375 84.0625 C26.023125 84.041875 19.60875 84.02125 13 84 C13 96.87 13 109.74 13 123 C8.71 123 4.42 123 0 123 C0 82.41 0 41.82 0 0 Z M13 11 C13 31.46 13 51.92 13 73 C22.1884375 73.12375 22.1884375 73.12375 31.5625 73.25 C33.46201416 73.28641602 35.36152832 73.32283203 37.31860352 73.36035156 C49.78779241 73.49915278 63.49251531 73.16374488 73.42578125 64.56640625 C73.94527344 64.04949219 74.46476563 63.53257812 75 63 C75.48855469 62.51402344 75.97710938 62.02804687 76.48046875 61.52734375 C81.7270288 55.75766628 83.5526122 49.77029156 83.4375 42.125 C83.42722778 41.0733667 83.42722778 41.0733667 83.41674805 40.00048828 C83.15231538 31.44158522 80.2051566 24.93536718 74 19 C63.7739297 12.83352545 53.80849449 10.8253797 42.00390625 10.90234375 C41.26394409 10.90335083 40.52398193 10.90435791 39.76159668 10.90539551 C37.02854842 10.91058103 34.29552246 10.92454185 31.5625 10.9375 C22.3740625 10.9684375 22.3740625 10.9684375 13 11 Z " fill="#F7F7F7" transform="translate(646,436)"/>
<path d="M0 0 C27.72 0 55.44 0 84 0 C84 3.63 84 7.26 84 11 C60.57 11 37.14 11 13 11 C13 25.52 13 40.04 13 55 C33.79 55 54.58 55 76 55 C76 58.63 76 62.26 76 66 C55.21 66 34.42 66 13 66 C13 80.85 13 95.7 13 111 C37.09 111 61.18 111 86 111 C86 114.63 86 118.26 86 122 C57.62 122 29.24 122 0 122 C0 81.74 0 41.48 0 0 Z " fill="#FAFAFA" transform="translate(772,436)"/>
<path d="M0 0 C6.78996148 5.13019312 11.5499394 11.55844855 16.671875 18.26660156 C18.56739393 20.74053252 20.49766115 23.18572502 22.4375 25.625 C23.03433594 26.38039063 23.63117187 27.13578125 24.24609375 27.9140625 C25.97565537 30.03255037 25.97565537 30.03255037 27.9609375 31.95703125 C31.08241004 35.08448362 33.76755816 38.54054234 36.53515625 41.98046875 C38.19437535 44.01307789 39.89091469 46.01572242 41.62109375 47.98828125 C42.44738281 48.94089844 43.27367187 49.89351562 44.125 50.875 C44.89070312 51.73867188 45.65640625 52.60234375 46.4453125 53.4921875 C48 56 48 56 47.88671875 58.59375 C46.27851697 62.95785703 43.7168057 66.75141403 39.9375 69.5 C37.58908985 71.31812399 36.56188135 73.42139614 35.18359375 76.01171875 C33.88643742 78.19077014 32.38420544 79.9994287 30.75 81.9375 C21.15790013 94.01031535 14.51809583 109.46887451 16 125 C16.99611307 131.57481173 19.15357891 136.90262781 22.375 142.6875 C22.95507812 143.76741211 22.95507812 143.76741211 23.546875 144.86914062 C25.82894212 149.06952256 28.28610388 153.06547024 31 157 C27.93256193 155.66976691 26.23315358 154.38480129 24.265625 151.69140625 C23.77852051 151.03293701 23.29141602 150.37446777 22.78955078 149.69604492 C22.28149902 148.9919751 21.77344727 148.28790527 21.25 147.5625 C20.71487793 146.83458252 20.17975586 146.10666504 19.62841797 145.35668945 C18.07758357 143.24350821 16.53739521 141.12296963 15 139 C14.31679688 138.06414062 13.63359375 137.12828125 12.9296875 136.1640625 C11.70045937 134.47719966 10.47400486 132.78831297 9.25 131.09765625 C6.22253068 126.92962991 3.17654398 122.77542445 0.125 118.625 C-0.47570312 117.80741211 -1.07640625 116.98982422 -1.6953125 116.14746094 C-6.12629167 110.13638693 -10.66713319 104.2239557 -15.3046875 98.37109375 C-17 96 -17 96 -17 94 C-15.63671875 92.6953125 -15.63671875 92.6953125 -13.6875 91.125 C0.70657248 78.79450251 13.59484327 62.7649734 15.2265625 43.296875 C15.66611795 29.31101976 9.57141533 16.01898591 1.74609375 4.64453125 C0 2 0 2 0 0 Z " fill="#FCF80B" transform="translate(748,733)"/>
<path d="M0 0 C4.18524682 -0.71192343 7.82846714 -0.87276751 12 0 C16.06270014 3.10779199 18.94759882 6.92319842 22 11 C23.30953844 12.62738758 24.62189663 14.25251147 25.9375 15.875 C26.576875 16.68839844 27.21625 17.50179687 27.875 18.33984375 C30.78868281 21.98730329 33.81483935 25.53415682 36.84326172 29.08642578 C40.72048269 33.64300624 44.48745799 38.27906135 48.22265625 42.953125 C49.84023586 45.07934421 49.84023586 45.07934421 52 46 C53.00693931 47.66248338 54.00548558 49.33005424 55 51 C56.53251579 52.96130259 58.09632577 54.89847882 59.6875 56.8125 C60.49574219 57.78832031 61.30398438 58.76414062 62.13671875 59.76953125 C63.05904297 60.87361328 63.05904297 60.87361328 64 62 C62.08879438 67.25143195 59.1770492 70.09508195 55 73.75 C51.9997397 77.12529283 50.11194535 81.02927624 48 85 C47.23466988 86.35728449 46.46441828 87.71181522 45.6875 89.0625 C45.130625 90.031875 44.57375 91.00125 44 92 C43.34 92 42.68 92 42 92 C41.34 93.65 40.68 95.3 40 97 C39.34 97 38.68 97 38 97 C37.9175 97.66 37.835 98.32 37.75 99 C36.93054846 102.27780615 35.63267272 104.88170488 34.03515625 107.83984375 C31.28366052 113.58164426 30.64564114 118.5454435 30.6875 124.8125 C30.68943359 126.00528564 30.68943359 126.00528564 30.69140625 127.22216797 C30.78618346 133.00476275 31.63218874 137.67242466 34 143 C34.66 143 35.32 143 36 143 C36 144.65 36 146.3 36 148 C36.66 148 37.32 148 38 148 C38.43699219 148.94359375 38.43699219 148.94359375 38.8828125 149.90625 C41.37683213 155.11388848 44.04102655 159.71314638 47.66796875 164.2109375 C49 166 49 166 50.02734375 168.07421875 C51.46606692 170.92277506 53.72730404 172.78141585 56 175 C60 179.64864865 60 179.64864865 60 182 C60.66 182 61.32 182 62 182 C61.37240135 184.92879371 60.41377341 187.36095629 59 190 C54.32538149 190.32613618 51.83325617 189.70582788 48 187 C48.23203125 186.42894531 48.4640625 185.85789062 48.703125 185.26953125 C49.25244041 182.9263801 49.25244041 182.9263801 47.734375 180.94921875 C47.07953125 180.20285156 46.4246875 179.45648437 45.75 178.6875 C32.69711838 163.12882959 16.3438152 143.59732638 16.78833008 122.10644531 C17.17373532 118.27106307 18.35693716 114.74914532 19.625 111.125 C19.89860352 110.33125977 20.17220703 109.53751953 20.45410156 108.71972656 C22.63067983 102.61980974 25.25592939 97.30200603 29 92 C29.73089844 90.92621094 30.46179688 89.85242188 31.21484375 88.74609375 C35.9624511 81.86945886 40.99460453 75.39205669 46.68432617 69.26245117 C49.22462623 66.5282913 49.22462623 66.5282913 50.09765625 63.02734375 C48.45717847 59.99742215 46.4085415 57.35656792 44.25 54.6875 C43.76337891 54.07648437 43.27675781 53.46546875 42.77539062 52.8359375 C38.60331345 47.6433142 34.2432347 42.62261822 29.84765625 37.61914062 C25.6823608 32.85526947 21.75876749 27.94175051 17.89599609 22.93115234 C15.11533626 19.34753217 12.20829326 15.95760245 9.125 12.625 C5.47376958 8.66567653 2.67933572 4.66722996 0 0 Z " fill="#0106F1" transform="translate(758,728)"/>
<path d="M0 0 C4.17721036 -0.68923971 7.83950568 -0.87616321 12 0 C15.70358088 3.04222715 17.7418362 6.81699803 20 11 C20.35078613 11.64759277 20.70157227 12.29518555 21.06298828 12.96240234 C29.27553602 28.30199418 35.07584148 42.25592327 30.15234375 59.83984375 C24.75893184 74.6305903 13.09876276 89.01076511 1 99 C0.34 99 -0.32 99 -1 99 C6.24636582 108.86436595 13.51396902 118.71075954 20.87329102 128.49121094 C24.31886561 133.07603407 27.70513948 137.70058265 31.06640625 142.34765625 C34.65654774 147.27231498 38.33374114 152.13191043 42 157 C43.18789024 158.58304058 44.37544694 160.16633156 45.5625 161.75 C46.03816406 162.38421875 46.51382813 163.0184375 47.00390625 163.671875 C47.33261719 164.11015625 47.66132812 164.5484375 48 165 C47.67 165.66 47.34 166.32 47 167 C46.43152344 166.73445312 45.86304688 166.46890625 45.27734375 166.1953125 C41.57835776 164.50328886 38.41158992 163.07096378 34.375 162.375 C29.02455434 160.19518881 27.0204841 155.75117542 24 151 C22.80693638 149.30166997 21.59803966 147.61437199 20.375 145.9375 C19.38113281 144.57431641 19.38113281 144.57431641 18.3671875 143.18359375 C14.8909958 138.50851745 11.33775599 133.89341155 7.78979492 129.27270508 C4.07228651 124.42375752 0.41537665 119.53959686 -3.140625 114.5703125 C-4.49969697 112.69159536 -5.88958712 110.83506448 -7.296875 108.9921875 C-8.04453125 108.00476563 -8.7921875 107.01734375 -9.5625 106 C-10.58537109 104.6696875 -10.58537109 104.6696875 -11.62890625 103.3125 C-12.30759766 102.1678125 -12.30759766 102.1678125 -13 101 C-12.67 100.01 -12.34 99.02 -12 98 C-11.34 98 -10.68 98 -10 98 C-9.7525 97.4225 -9.505 96.845 -9.25 96.25 C-7.81700012 93.67060021 -6.21575324 91.93878408 -4 90 C-3.34 90 -2.68 90 -2 90 C-1.77828125 89.47277344 -1.5565625 88.94554687 -1.328125 88.40234375 C0.11388374 85.79400441 1.88075755 83.61637279 3.78344727 81.33081055 C12.85897151 70.38790691 19.71670953 57.9853019 19.23828125 43.35546875 C17.78794493 29.01853759 9.63647824 15.78687505 1.46875 4.2578125 C0 2 0 2 0 0 Z " fill="#F20802" transform="translate(732,728)"/>
<path d="M0 0 C2.34376825 2.13430468 3.6803862 4.05634199 4.97363281 6.94213867 C5.50999359 8.12564156 5.50999359 8.12564156 6.05718994 9.33305359 C6.43534851 10.18607559 6.81350708 11.0390976 7.203125 11.91796875 C7.6040033 12.80801102 8.00488159 13.69805328 8.41790771 14.61506653 C9.70168711 17.46971436 10.97586741 20.32853545 12.25 23.1875 C13.0918391 25.06212248 13.93428102 26.93647437 14.77734375 28.81054688 C16.81632729 33.34870329 18.8416296 37.89278739 20.8605957 42.43988037 C21.95767188 44.90489325 23.06302387 47.36604548 24.16992188 49.82666016 C24.81671319 51.27623027 25.46321636 52.725929 26.109375 54.17578125 C26.40571838 54.82975388 26.70206177 55.4837265 27.00738525 56.15751648 C28.25185248 58.9684775 29 60.88589732 29 64 C10.19 64 -8.62 64 -28 64 C-27.29247524 60.46237619 -26.78355009 58.17402522 -25.36108398 55.04614258 C-25.02660751 54.3037886 -24.69213104 53.56143463 -24.34751892 52.79658508 C-23.98404861 52.00390732 -23.62057831 51.21122955 -23.24609375 50.39453125 C-22.86695328 49.55645432 -22.48781281 48.71837738 -22.09718323 47.85490417 C-20.88217592 45.17185434 -19.66007084 42.49211063 -18.4375 39.8125 C-17.24609339 37.18868724 -16.05616484 34.56420777 -14.86636353 31.93966675 C-14.07953651 30.20496056 -13.29175961 28.47068489 -12.50302124 26.73684692 C-9.43620399 19.98953046 -6.42272964 13.21945012 -3.45225525 6.42915344 C-1.10841866 1.10841866 -1.10841866 1.10841866 0 0 Z " fill="#040404" transform="translate(1057,451)"/>
<path d="M0 0 C8.34726325 -0.43868829 15.14350921 -0.17554637 22.890625 3.125 C24.9272849 4.12771914 24.9272849 4.12771914 27 4 C26.34 3.01 25.68 2.02 25 1 C28.24168182 2.37844567 29.91615815 3.82273492 31.98046875 6.66015625 C32.50447266 7.37107422 33.02847656 8.08199219 33.56835938 8.81445312 C34.36983398 9.92723633 34.36983398 9.92723633 35.1875 11.0625 C36.26390092 12.53286111 37.34070265 14.0029289 38.41796875 15.47265625 C38.89000732 16.12500244 39.3620459 16.77734863 39.84838867 17.44946289 C40.91291816 18.96160142 40.91291816 18.96160142 42 20 C42.04063832 21.66617115 42.042721 23.33388095 42 25 C40.96875 24.67 39.9375 24.34 38.875 24 C34.33768513 22.70493644 30.52123795 22.49292068 26 24 C25.01 23.67 24.02 23.34 23 23 C19.10382851 22.63924338 16.76222841 22.57457019 13.3125 24.5 C7.21373507 31.09325938 6.28785513 37.10690856 6.5546875 46.0546875 C7.7591201 56.72553769 12.41133465 66.56900642 19 75 C19.99 75.66 20.98 76.32 22 77 C21.38722388 79.96175123 20.74627478 81.38058783 19 84 C15.38870462 83.39126228 13.2721223 81.89845341 10.4375 79.625 C9.67308594 79.01914062 8.90867187 78.41328125 8.12109375 77.7890625 C7.07115234 76.90347656 7.07115234 76.90347656 6 76 C5.484375 75.57460938 4.96875 75.14921875 4.4375 74.7109375 C2.24463459 72.10095095 0.95762819 69.08132353 -0.4375 66 C-0.900354 64.9951355 -0.900354 64.9951355 -1.37255859 63.9699707 C-3.51530888 59.25107324 -5.33566187 54.47350523 -7.02734375 49.57421875 C-8.40111801 45.93840656 -10.14598158 42.53274102 -11.94921875 39.09375 C-14.10508347 34.79804928 -14.21588811 30.89067719 -14.25 26.1875 C-14.270625 25.48818359 -14.29125 24.78886719 -14.3125 24.06835938 C-14.35692998 18.13140386 -13.01953553 14.07893363 -8.875 9.8125 C-7.946875 8.9153125 -7.946875 8.9153125 -7 8 C-6.67 7.01 -6.34 6.02 -6 5 C-2.9375 3.3125 -2.9375 3.3125 0 2 C0 1.34 0 0.68 0 0 Z " fill="#F6FCF9" transform="translate(752,889)"/>
<path d="M0 0 C-2.62198774 2.15377564 -4.64404172 3.40072174 -8 4 C-8.0825 4.5775 -8.165 5.155 -8.25 5.75 C-9.20710491 8.62131472 -10.8743794 9.8743794 -13 12 C-16.54506584 18.92670666 -16.31534348 28.78670854 -14.01953125 36.140625 C-12.77465489 38.82189716 -11.40816161 41.40155852 -10 44 C-9.28735544 45.69799787 -8.59908366 47.40646397 -7.9375 49.125 C-6.08852756 53.81399412 -4.11962789 58.42688341 -2 63 C-1.59652344 63.87269531 -1.19304688 64.74539063 -0.77734375 65.64453125 C2.23204688 71.95037498 2.23204688 71.95037498 7 77 C6.25 79.4375 6.25 79.4375 5 82 C3.125 82.81640625 3.125 82.81640625 1 83 C-0.640625 82.03125 -0.640625 82.03125 -2.25 80.5 C-2.85457031 79.94183594 -3.45914063 79.38367188 -4.08203125 78.80859375 C-5.03142578 77.91333984 -5.03142578 77.91333984 -6 77 C-7.30812007 75.84916892 -8.62069633 74.70338491 -9.9375 73.5625 C-10.93910156 72.68078125 -10.93910156 72.68078125 -11.9609375 71.78125 C-13.31004203 70.60272191 -14.66936696 69.43578264 -16.0390625 68.28125 C-26.50737159 59.38925 -38.36074528 46.88587342 -40.31347656 32.72705078 C-40.47202747 30.32934226 -40.51927809 27.96527252 -40.5 25.5625 C-40.49355469 24.72501221 -40.48710938 23.88752441 -40.48046875 23.0246582 C-40.25578945 15.45281808 -38.71349546 10.55513745 -33.16796875 5.24609375 C-23.44512352 -2.7124482 -11.82479702 -4.29992619 0 0 Z " fill="#F30802" transform="translate(754,890)"/>
<path d="M0 0 C4.13235199 4.0160569 7.92551689 8.26229252 11.6875 12.625 C12.26822266 13.29273438 12.84894531 13.96046875 13.44726562 14.6484375 C20.02088884 22.24800191 20.02088884 22.24800191 19.9375 25.25 C18.40265553 29.75221044 15.80707966 33.68576025 11.9375 36.5 C9.58908985 38.31812399 8.56188135 40.42139614 7.18359375 43.01171875 C5.88643742 45.19077014 4.38420544 46.9994287 2.75 48.9375 C-6.07234106 60.04148099 -11.69666284 73.9239587 -13 88 C-13.33 87.01 -13.66 86.02 -14 85 C-14.66 85 -15.32 85 -16 85 C-17.296875 83.3125 -17.296875 83.3125 -18.75 81 C-21.23839919 77.12712381 -23.8729846 73.4531891 -26.703125 69.82421875 C-28.03071577 67.95679438 -29.03012934 66.0724123 -30 64 C-30.66 64 -31.32 64 -32 64 C-31.62403791 61.21788056 -31.32681541 59.4120716 -29.5625 57.1875 C-28 56 -28 56 -26 56 C-26 55.34 -26 54.68 -26 54 C-24.948125 53.4121875 -24.948125 53.4121875 -23.875 52.8125 C-20.11615879 50.44279576 -17.75543725 47.44049071 -15 44 C-14.278125 43.13375 -13.55625 42.2675 -12.8125 41.375 C-10.98846876 38.9848901 -9.48549557 36.6144722 -8 34 C-7.39285156 32.97519531 -7.39285156 32.97519531 -6.7734375 31.9296875 C-6.33257813 31.16914062 -5.89171875 30.40859375 -5.4375 29.625 C-5.02371094 28.91601562 -4.60992188 28.20703125 -4.18359375 27.4765625 C-1.22878714 21.29389784 -0.63520507 15.28988519 -0.375 8.5625 C-0.33632813 7.73556641 -0.29765625 6.90863281 -0.2578125 6.05664062 C-0.16446908 4.03808927 -0.08119039 2.01907669 0 0 Z " fill="#F9FEF7" transform="translate(776,766)"/>
<path d="M0 0 C0.66 0.66 1.32 1.32 2 2 C-3.75 5 -3.75 5 -6 5 C-6.0825 5.5775 -6.165 6.155 -6.25 6.75 C-7.20710491 9.62131472 -8.8743794 10.8743794 -11 13 C-14.54506584 19.92670666 -14.31534348 29.78670854 -12.01953125 37.140625 C-10.77465489 39.82189716 -9.40816161 42.40155852 -8 45 C-7.28735544 46.69799787 -6.59908366 48.40646397 -5.9375 50.125 C-3.61851507 56.01596978 -1.12287164 61.79435928 1.75 67.4375 C3 70 3 70 3 72 C-8.42491767 67.50767801 -18.02901828 52.72701001 -23.37109375 42.33203125 C-26.84990461 34.18270617 -28.0417817 23.54106938 -24.9375 15.0625 C-20.83955443 8.58510216 -16.20545761 2.46820599 -8.5625 0.3125 C-5.65083756 -0.04258078 -2.92951782 -0.19530119 0 0 Z " fill="#FBF80C" transform="translate(752,889)"/>
<path d="M0 0 C0 0.66 0 1.32 0 2 C-0.7425 2.53625 -1.485 3.0725 -2.25 3.625 C-6.87312726 7.61770082 -8.6582169 11.27522914 -9.421875 17.36328125 C-9.93463287 31.07955438 -5.43702346 43.20380885 3 54 C3.99 54.66 4.98 55.32 6 56 C5.38722388 58.96175123 4.74627478 60.38058783 3 63 C-0.61129538 62.39126228 -2.7278777 60.89845341 -5.5625 58.625 C-6.70912109 57.71621094 -6.70912109 57.71621094 -7.87890625 56.7890625 C-8.57886719 56.19867187 -9.27882813 55.60828125 -10 55 C-10.51304687 54.57976563 -11.02609375 54.15953125 -11.5546875 53.7265625 C-13.80365935 51.03995288 -15.12256021 47.9147709 -16.5625 44.75 C-17.01786133 43.78513672 -17.01786133 43.78513672 -17.48242188 42.80078125 C-22.19832326 32.58813207 -23.52835774 22.15906992 -22 11 C-20.12920709 6.19399752 -17.32924007 3.96672005 -13.25 1 C-8.78958091 -0.37243664 -4.628615 -0.24698143 0 0 Z " fill="#04FBF9" transform="translate(768,910)"/>
<path d="M0 0 C0.99 0.66 1.98 1.32 3 2 C2.34 2 1.68 2 1 2 C0.34 3.98 -0.32 5.96 -1 8 C-1.66 8 -2.32 8 -3 8 C-5.80252724 24.11453161 -1.88456729 38.32244246 7 52 C7.7321875 52.71929688 8.464375 53.43859375 9.21875 54.1796875 C11 56 11 56 11 59 C10.34 59 9.68 59 9 59 C8.67 59.99 8.34 60.98 8 62 C4.56072421 60.7580393 1.74792181 59.44259716 -1 57 C-1 56.34 -1 55.68 -1 55 C-1.58910156 54.76796875 -2.17820312 54.5359375 -2.78515625 54.296875 C-9.977074 50.08573445 -13.62828686 39.21243578 -16.11328125 31.69140625 C-18.03750855 23.68085648 -18.68509457 15.31181012 -14.8125 7.8125 C-10.75668009 1.79125476 -7.52532503 -0.83614723 0 0 Z " fill="#0207EE" transform="translate(775,911)"/>
<path d="M0 0 C3.8895079 3.74545205 7.60471151 7.65337844 10.375 12.3125 C12.4055745 15.67075782 14.80247579 18.65092526 17.234375 21.7265625 C19.14537364 24.18718464 20.92729907 26.71131741 22.6640625 29.296875 C24.06700471 31.16363001 24.06700471 31.16363001 26.26953125 33.20703125 C29.54958157 36.56216141 32.28019112 40.16825891 35.0625 43.9375 C35.57876953 44.62779297 36.09503906 45.31808594 36.62695312 46.02929688 C39.54114135 49.94581736 42.33210975 53.91179407 45 58 C43.35 60.31 41.7 62.62 40 65 C38.53001271 64.5130289 37.07401004 63.98373565 35.625 63.4375 C34.81289063 63.14746094 34.00078125 62.85742188 33.1640625 62.55859375 C30.01749933 60.2923867 29.98416854 57.68580766 29 54 C26.95679142 50.86188412 26.95679142 50.86188412 24.4375 47.875 C23.53023402 46.73621795 22.62534183 45.59554124 21.72265625 44.453125 C21.26648926 43.87884766 20.81032227 43.30457031 20.34033203 42.71289062 C10.87858546 30.62115766 0 15.9184158 0 0 Z " fill="#09F2F5" transform="translate(763,854)"/>
<path d="M0 0 C4.15518147 3.787647 7.27466758 8.2855145 10.5625 12.8125 C11.18020264 13.6569165 11.79790527 14.50133301 12.43432617 15.37133789 C14.29243441 17.91213383 16.1463112 20.4559789 18 23 C19.93552099 25.64728551 21.87364462 28.29265594 23.8125 30.9375 C24.47717285 31.84508057 24.47717285 31.84508057 25.15527344 32.77099609 C29.39117258 38.54851057 33.68959463 44.27785334 38 50 C39.18789266 51.58303877 40.37544381 53.16633391 41.5625 54.75 C42.27599609 55.70132813 42.27599609 55.70132813 43.00390625 56.671875 C43.33261719 57.11015625 43.66132812 57.5484375 44 58 C43.505 58.99 43.505 58.99 43 60 C42.43152344 59.73445312 41.86304688 59.46890625 41.27734375 59.1953125 C37.57835776 57.50328886 34.41158992 56.07096378 30.375 55.375 C25.02455434 53.19518881 23.0204841 48.75117542 20 44 C18.80693638 42.30166997 17.59803966 40.61437199 16.375 38.9375 C15.71757813 38.03386719 15.06015625 37.13023437 14.3828125 36.19921875 C12.52410486 33.70367522 10.64459989 31.23150887 8.7421875 28.76953125 C8.16678223 28.02388916 7.59137695 27.27824707 6.99853516 26.51000977 C5.85908937 25.03725779 4.71571882 23.5675314 3.56787109 22.10131836 C0.31033215 17.89370493 -2.47342396 13.68520412 -5 9 C-3 9 -3 9 -0.875 11 C-0.25625 11.66 0.3625 12.32 1 13 C2.66621425 11.8354799 2.66621425 11.8354799 4 10 C3.76956136 7.34533951 3.76956136 7.34533951 3 5 C2.01 4.67 1.02 4.34 0 4 C0 2.68 0 1.36 0 0 Z " fill="#F10B03" transform="translate(736,835)"/>
<path d="M0 0 C5.61 0 11.22 0 17 0 C17 0.66 17 1.32 17 2 C15.5234375 3.12109375 15.5234375 3.12109375 13.375 4.4375 C7.66920338 8.10227239 2.43620053 12.29402217 -2.86328125 16.51171875 C-3.41226074 16.94299072 -3.96124023 17.3742627 -4.52685547 17.81860352 C-5.72597253 18.78024214 -6.88363286 19.79339675 -8.02734375 20.8203125 C-10.82347623 22.49245509 -13.02678378 22.29260488 -16.25 22.1875 C-17.86648438 22.14689453 -17.86648438 22.14689453 -19.515625 22.10546875 C-20.74539063 22.05326172 -20.74539063 22.05326172 -22 22 C-21.0919838 20.86800647 -20.17316174 19.74467637 -19.25 18.625 C-18.48429688 17.68527344 -18.48429688 17.68527344 -17.703125 16.7265625 C-15.91800519 14.91687682 -14.32050356 13.99882545 -12 13 C-12 12.34 -12 11.68 -12 11 C-10.390625 9.34375 -10.390625 9.34375 -8.25 7.5 C-7.55390625 6.8915625 -6.8578125 6.283125 -6.140625 5.65625 C-4.15539208 4.12023037 -2.28127955 3.0276034 0 2 C0 1.34 0 0.68 0 0 Z " fill="#EEEEEE" transform="translate(565,404)"/>
<path d="M0 0 C3.8895079 3.74545205 7.60471151 7.65337844 10.375 12.3125 C11.88685194 14.81287051 13.51382775 17.01397791 15.3125 19.3125 C15.91964844 20.08851563 16.52679687 20.86453125 17.15234375 21.6640625 C18.34171071 23.16774419 19.54148154 24.66328474 20.75390625 26.1484375 C23.86356542 30.05986421 25.74107207 32.82144145 26 38 C26.66 38 27.32 38 28 38 C27.67 38.66 27.34 39.32 27 40 C17.55841723 37.0543502 12.64444738 33.74382514 8 25 C7.68659668 24.41831055 7.37319336 23.83662109 7.05029297 23.23730469 C3.07679249 15.74419447 -0.14280253 8.67015347 0 0 Z " fill="#1EF803" transform="translate(763,854)"/>
<path d="M0 0 C12.3431162 -0.90193271 12.3431162 -0.90193271 15.9375 1.0546875 C18.60162252 4.13507916 19.84437751 7.97745003 21.1171875 11.78125 C22.5300313 15.33211406 24.57533293 18.47152438 26.59765625 21.703125 C29.61362178 26.64292369 30.42639456 30.26394562 31 36 C26.66282646 31.85104342 22.90259011 27.34598151 19.125 22.6875 C10.95542098 12.55327052 10.95542098 12.55327052 2.0625 3.0625 C1.381875 2.381875 0.70125 1.70125 0 1 C0 0.67 0 0.34 0 0 Z " fill="#14F903" transform="translate(744,728)"/>
<path d="M0 0 C0.48726562 0.64839844 0.97453125 1.29679688 1.4765625 1.96484375 C4.88443103 6.0637816 8.60936084 9.79362575 12.375 13.5625 C13.1175 14.31724609 13.86 15.07199219 14.625 15.84960938 C18.52454884 19.75949271 22.25581184 23.16101756 27 26 C26.38722388 28.96175123 25.74627478 30.38058783 24 33 C20.38870462 32.39126228 18.2721223 30.89845341 15.4375 28.625 C14.67308594 28.01914062 13.90867187 27.41328125 13.12109375 26.7890625 C12.42113281 26.19867187 11.72117187 25.60828125 11 25 C10.48824219 24.57976563 9.97648438 24.15953125 9.44921875 23.7265625 C7.19018177 21.03520308 5.83724522 17.91613267 4.375 14.75 C4.06304688 14.10675781 3.75109375 13.46351563 3.4296875 12.80078125 C1.42079471 8.497248 0.45333489 4.72938564 0 0 Z " fill="#03FB24" transform="translate(747,940)"/>
<path d="M0 0 C0.33 0 0.66 0 1 0 C1 58.74 1 117.48 1 178 C0.67 178 0.34 178 0 178 C-0.33 120.91 -0.66 63.82 -1 5 C-1.99 5.495 -1.99 5.495 -3 6 C-1.125 1.125 -1.125 1.125 0 0 Z " fill="#141414" transform="translate(1072,785)"/>
<path d="M0 0 C4.29 0 8.58 0 13 0 C13.66 1.65 14.32 3.3 15 5 C15.99 6.485 15.99 6.485 17 8 C17 8.99 17 9.98 17 11 C17.66 11.33 18.32 11.66 19 12 C16 14 16 14 13.6875 14.0625 C10.22947775 12.69537492 8.77097898 10.72071447 6.4921875 7.8515625 C5.12086856 6.14997827 3.69480993 4.64159603 2.125 3.125 C1.42375 2.42375 0.7225 1.7225 0 1 C0 0.67 0 0.34 0 0 Z " fill="#04FC05" transform="translate(744,728)"/>
<path d="M0 0 C5.2758287 4.95608151 11.06286209 10.43887593 12.9375 17.5625 C12.958125 18.366875 12.97875 19.17125 13 20 C13.66 20 14.32 20 15 20 C14.67 20.66 14.34 21.32 14 22 C2.68362783 18.24517927 2.68362783 18.24517927 0.25 13.8125 C-0.05296209 9.19232809 -0.16758223 4.62713151 0 0 Z " fill="#01FD06" transform="translate(776,872)"/>
<path d="M0 0 C3.74281699 2.38179263 6.97727468 4.74475735 10 8 C9.25 10.4375 9.25 10.4375 8 13 C6.14453125 13.83203125 6.14453125 13.83203125 4 14 C2.18359375 12.890625 2.18359375 12.890625 0.4375 11.25 C-0.14128906 10.71890625 -0.72007812 10.1878125 -1.31640625 9.640625 C-2.8908144 8.10639896 -4.45263113 6.56147862 -6 5 C-3.525 5.495 -3.525 5.495 -1 6 C-0.67 4.02 -0.34 2.04 0 0 Z " fill="#E01005" transform="translate(751,959)"/>
<path d="M0 0 C4.15818702 2.92196925 5.91866806 5.4037253 8 10 C9.32060347 12.29409968 10.65863835 14.57647156 12.01171875 16.8515625 C13 19 13 19 13 23 C13.66 23 14.32 23 15 23 C16.87983387 29.37346066 17.33569138 35.18440238 17.3125 41.8125 C17.33666992 43.22305664 17.33666992 43.22305664 17.36132812 44.66210938 C17.36229492 46.0146582 17.36229492 46.0146582 17.36328125 47.39453125 C17.36626221 48.20768799 17.36924316 49.02084473 17.37231445 49.85864258 C16.91872913 52.46742744 16.01384517 53.34758862 14 55 C14.165 53.741875 14.33 52.48375 14.5 51.1875 C16.35521801 33.75390721 11.64453136 19.03235272 1.74609375 4.64453125 C0 2 0 2 0 0 Z " fill="#FAD619" transform="translate(748,733)"/>
<path d="M0 0 C2 2 2 2 2.8671875 4.35546875 C4.17187036 7.40122839 5.73523617 9.03836991 8.125 11.3125 C8.84945312 12.00988281 9.57390625 12.70726562 10.3203125 13.42578125 C10.87460937 13.94527344 11.42890625 14.46476563 12 15 C11.505 16.175625 11.505 16.175625 11 17.375 C9.88133489 19.84332497 9.88133489 19.84332497 10 22 C11.32 21.67 12.64 21.34 14 21 C14.33 23.31 14.66 25.62 15 28 C9.51810707 24.30811292 6.86295022 20.44106137 4.125 14.5625 C3.827146 13.93013428 3.52929199 13.29776855 3.22241211 12.64624023 C1.3461995 8.41753306 0.46316811 4.60199085 0 0 Z " fill="#17F80D" transform="translate(747,940)"/>
<path d="M0 0 C1.10189001 2.76462224 1.05021958 3.86352092 0.00390625 6.70703125 C-0.47175781 7.73183594 -0.94742188 8.75664063 -1.4375 9.8125 C-4.52457936 17.34634188 -4.75282254 23.95555345 -4 32 C-3.67 32.33 -3.34 32.66 -3 33 C-2.95919217 34.99958364 -2.95745644 37.00045254 -3 39 C-2.34 39 -1.68 39 -1 39 C0.66670026 42.52948291 1.13583456 44.28272326 0 48 C-5.0357771 38.97033072 -8.95131734 28.11291725 -6.44873047 17.70800781 C-5.71338815 15.32148326 -4.90826483 12.97456179 -4.0625 10.625 C-3.78470703 9.81933594 -3.50691406 9.01367188 -3.22070312 8.18359375 C-1.23441793 2.46883585 -1.23441793 2.46883585 0 0 Z " fill="#002CE3" transform="translate(782,828)"/>
<path d="M0 0 C0.33 0 0.66 0 1 0 C1 2.64 1 5.28 1 8 C0.34 8 -0.32 8 -1 8 C-0.91224337 10.20904631 -0.80405633 12.41728593 -0.6875 14.625 C-0.62949219 15.85476563 -0.57148437 17.08453125 -0.51171875 18.3515625 C0.02290746 22.16332496 1.23401692 24.61953908 3 28 C3 29.32 3 30.64 3 32 C3.66 32 4.32 32 5 32 C5 33.65 5 35.3 5 37 C5.66 37 6.32 37 7 37 C7 37.66 7 38.32 7 39 C7.66 39 8.32 39 9 39 C9.33 41.31 9.66 43.62 10 46 C9.34 45.67 8.68 45.34 8 45 C7.26924352 42.6859378 6.59861742 40.35171131 6 38 C5.34 38 4.68 38 4 38 C4 36.35 4 34.7 4 33 C3.34 33 2.68 33 2 33 C-1.63613363 26.8640245 -2.38634395 21.81030113 -2.375 14.8125 C-2.37628906 14.0405127 -2.37757813 13.26852539 -2.37890625 12.47314453 C-2.29322369 7.9543629 -1.69506058 4.25121192 0 0 Z " fill="#000043" transform="translate(790,838)"/>
<path d="M0 0 C22.77 0 45.54 0 69 0 C69 0.33 69 0.66 69 1 C68.16728073 1.01030746 67.33456146 1.02061493 66.47660828 1.03123474 C58.63376791 1.129162 50.79100373 1.2316697 42.94829082 1.33933926 C38.91615716 1.39453281 34.88401619 1.44794712 30.85180664 1.49731445 C26.96141552 1.54501062 23.07111231 1.59735535 19.18082619 1.65294075 C17.69567869 1.6733405 16.21050711 1.69205751 14.725317 1.70907402 C12.64711162 1.73317079 10.56907192 1.76321796 8.4909668 1.79467773 C7.30738083 1.81022202 6.12379486 1.8257663 4.90434265 1.84178162 C1.93363184 1.87536986 1.93363184 1.87536986 -1 3 C-0.67 2.01 -0.34 1.02 0 0 Z " fill="#161616" transform="translate(1023,526)"/>
<path d="M0 0 C2.97 0.495 2.97 0.495 6 1 C4.8553125 1.8971875 4.8553125 1.8971875 3.6875 2.8125 C2.800625 3.534375 1.91375 4.25625 1 5 C0.46375 5.38027344 -0.0725 5.76054688 -0.625 6.15234375 C-2.78556254 9.05559966 -2.57598965 12.25813309 -2.6875 15.75 C-2.72166016 16.4409375 -2.75582031 17.131875 -2.79101562 17.84375 C-2.99306599 22.23112928 -3.02873965 26.60858097 -3 31 C-3.33 31 -3.66 31 -4 31 C-6.56108041 22.35635361 -6.9841468 14.57942205 -4 6 C-3.34 6 -2.68 6 -2 6 C-1.855625 5.38125 -1.71125 4.7625 -1.5625 4.125 C-1 2 -1 2 0 0 Z " fill="#000048" transform="translate(776,913)"/>
<path d="M0 0 C1.17794177 3.53382531 0.92135411 6.0933369 0.75 9.8125 C0.51137603 21.25668237 4.83308154 30.56824235 11 40 C10.67 40.66 10.34 41.32 10 42 C7.5 39.75 7.5 39.75 5 37 C5 35.68 5 34.36 5 33 C4.34 33 3.68 33 3 33 C-1.30539747 22.29416791 -1.7157498 12.40506244 -1 1 C-0.67 0.67 -0.34 0.34 0 0 Z " fill="#15D2FE" transform="translate(758,921)"/>
<path d="M0 0 C1.49768124 2.74780866 2.31938382 5.13148486 2.8515625 8.20703125 C3.89912927 13.19471515 5.90875536 17.25873716 8.375 21.6875 C8.76171875 22.40744141 9.1484375 23.12738281 9.546875 23.86914062 C11.82894212 28.06952256 14.28610388 32.06547024 17 36 C13.26908692 34.51751798 11.59076134 32.51171905 9.3125 29.25 C8.71050781 28.40953125 8.10851562 27.5690625 7.48828125 26.703125 C5.86408701 23.75314492 5.36488565 21.32775711 5 18 C4.34 18 3.68 18 3 18 C2.51933465 16.10454608 2.04053257 14.20861961 1.5625 12.3125 C1.29566406 11.25675781 1.02882813 10.20101562 0.75390625 9.11328125 C-0.61308767 3.4682338 -0.61308767 3.4682338 -1 1 C-0.67 0.67 -0.34 0.34 0 0 Z " fill="#C7FE11" transform="translate(762,854)"/>
<path d="M0 0 C0.76180386 2.28541157 1.0630362 3.71843831 0.53125 6.09375 C-0.18627321 10.01902402 -0.10587148 13.83233275 -0.0625 17.8125 C-0.05798828 18.60076172 -0.05347656 19.38902344 -0.04882812 20.20117188 C-0.03711312 22.13414761 -0.01917998 24.06708393 0 26 C0.66 26 1.32 26 2 26 C2.33 28.31 2.66 30.62 3 33 C-0.25741634 31.37129183 -0.8979601 28.52678333 -2.16796875 25.23046875 C-3.16928738 21.34271989 -3.41077354 17.75021319 -3.4375 13.75 C-3.4473291 13.07702881 -3.4571582 12.40405762 -3.46728516 11.71069336 C-3.38887555 7.11123139 -2.3112252 3.94808761 0 0 Z " fill="#FEFEAF" transform="translate(741,901)"/>
<path d="M0 0 C4.64609234 4.47401485 9.03598194 9.22796484 12 15 C12 15.99 12 16.98 12 18 C11.38125 17.835 10.7625 17.67 10.125 17.5 C8.03936614 16.92365356 8.03936614 16.92365356 6 17 C2.75400216 12.84512277 2.43173627 9.09448798 2 4 C1.34 4 0.68 4 0 4 C0 2.68 0 1.36 0 0 Z " fill="#07F930" transform="translate(763,854)"/>
<path d="M0 0 C0 0.66 0 1.32 0 2 C-0.99 2.33 -1.98 2.66 -3 3 C-3 2.34 -3 1.68 -3 1 C-5.97065509 1.34227572 -5.97065509 1.34227572 -9 2 C-9.33 2.66 -9.66 3.32 -10 4 C-12.36514842 5.53415032 -14.61985986 6.85216772 -17.25 7.875 C-19.18377978 8.86270156 -19.18377978 8.86270156 -19.6875 11 C-19.790625 11.99 -19.89375 12.98 -20 14 C-20.09023438 14.84175781 -20.18046875 15.68351563 -20.2734375 16.55078125 C-20.53319791 19.03254628 -20.7732168 21.51503514 -21 24 C-21.33 24 -21.66 24 -22 24 C-23.03219171 11.46078222 -23.03219171 11.46078222 -19.375 6.375 C-13.62247092 0.03384004 -8.17707389 -0.43632608 0 0 Z " fill="#3BEFF4" transform="translate(768,910)"/>
<path d="M0 0 C9.59453303 0.59453303 9.59453303 0.59453303 13 4 C11.875 5.5625 11.875 5.5625 10 7 C5.58249068 6.80793438 2.62924479 5.45507736 -1 3 C-0.67 2.01 -0.34 1.02 0 0 Z " fill="#E71209" transform="translate(781,911)"/>
<path d="M0 0 C0.33 0 0.66 0 1 0 C1.17015625 0.96679688 1.3403125 1.93359375 1.515625 2.9296875 C3.56931738 14.15201075 6.6240014 23.32534839 12.92578125 32.96875 C13.45751953 33.97421875 13.45751953 33.97421875 14 35 C13.67 35.66 13.34 36.32 13 37 C5 27.57142857 5 27.57142857 5 22 C4.34 22 3.68 22 3 22 C-0.44419134 7.40318907 -0.44419134 7.40318907 0 0 Z " fill="#1AD7F8" transform="translate(774,849)"/>
<path d="M0 0 C4.38889325 0.66498383 7.9811485 2.18757677 12 4 C10.515 6.475 10.515 6.475 9 9 C4.545 7.02 4.545 7.02 0 5 C0 3.35 0 1.7 0 0 Z " fill="#16E71F" transform="translate(794,910)"/>
<path d="M0 0 C4.64920773 3.6175788 8.19326729 7.44508854 11.75 12.125 C12.23082031 12.74503906 12.71164062 13.36507812 13.20703125 14.00390625 C15.22687521 16.62013868 17.16609546 19.24914319 19 22 C15.98385187 20.8829081 14.35491331 19.3874224 12.375 16.9375 C10.32880603 13.99175287 10.32880603 13.99175287 8 13 C7.67 12.01 7.34 11.02 7 10 C6.01 9.67 5.02 9.34 4 9 C2.00603743 6.33916031 0 3.38757675 0 0 Z " fill="#16DAF2" transform="translate(763,736)"/>
<path d="M0 0 C5.80205656 5.64524422 5.80205656 5.64524422 8 9 C8 9.66 8 10.32 8 11 C5.47909222 11.0272367 2.95848543 11.04695207 0.4375 11.0625 C-0.61920898 11.07506836 -0.61920898 11.07506836 -1.69726562 11.08789062 C-6.24024798 11.10882603 -10.51784892 10.74800682 -15 10 C-15 9.67 -15 9.34 -15 9 C-9.06 9 -3.12 9 3 9 C2.34 7.68 1.68 6.36 1 5 C0.62331656 3.34259285 0.27942455 1.67654729 0 0 Z " fill="#2B2709" transform="translate(755,878)"/>
<path d="M0 0 C0.66 0 1.32 0 2 0 C4.41685712 4.22949995 5.34833144 7.12335991 5 12 C5.66 12 6.32 12 7 12 C7.33 13.65 7.66 15.3 8 17 C3.60507746 12.76203898 0.00525378 8.84865687 -2 3 C-1.34 3 -0.68 3 0 3 C0 2.01 0 1.02 0 0 Z " fill="#05FDE9" transform="translate(772,859)"/>
<path d="M0 0 C3.94698067 3.94698067 4.1235787 10.29984748 4.1875 15.6875 C4.107479 19.19611328 3.70643734 22.55611798 3 26 C2.67 26 2.34 26 2 26 C1.34 17.42 0.68 8.84 0 0 Z " fill="#4D0201" transform="translate(748,758)"/>
<path d="M0 0 C1.65 0.33 3.3 0.66 5 1 C4.38722388 3.96175123 3.74627478 5.38058783 2 8 C-2.24822374 7.52797514 -4.19989709 5.03344482 -7 2 C-4.03 2.495 -4.03 2.495 -1 3 C-0.67 2.01 -0.34 1.02 0 0 Z " fill="#12DC22" transform="translate(769,965)"/>
<path d="M0 0 C2.08153935 -0.13536022 4.16561206 -0.23215465 6.25 -0.3125 C7.41015625 -0.37050781 8.5703125 -0.42851563 9.765625 -0.48828125 C13 0 13 0 15.421875 2.51953125 C15.94265625 3.33808594 16.4634375 4.15664063 17 5 C16.67 5.66 16.34 6.32 16 7 C15.43152344 6.73445312 14.86304688 6.46890625 14.27734375 6.1953125 C9.56807886 4.04115794 5.01768869 2.28111201 0 1 C0 0.67 0 0.34 0 0 Z " fill="#E32CBC" transform="translate(763,888)"/>
<path d="M0 0 C5.49216417 4.52295873 8.2225668 10.53841143 11 17 C11 17.66 11 18.32 11 19 C10.34 19 9.68 19 9 19 C8.34 18.01 7.68 17.02 7 16 C6.67 16 6.34 16 6 16 C6 14.35 6 12.7 6 11 C5.34 11 4.68 11 4 11 C2.03810791 7.3321148 0.60698743 4.12751449 0 0 Z " fill="#02FA47" transform="translate(757,728)"/>
<path d="M0 0 C1.65 0 3.3 0 5 0 C5.0825 0.9075 5.165 1.815 5.25 2.75 C6.11101966 6.48108518 7.22840141 7.48036492 10 10 C11.25 12.25 11.25 12.25 12 14 C12.66 14 13.32 14 14 14 C14 15.65 14 17.3 14 19 C10.16592701 15.37703938 7.13516629 11.61509651 4.1875 7.25 C3.78080078 6.66089844 3.37410156 6.07179688 2.95507812 5.46484375 C0 1.14397321 0 1.14397321 0 0 Z " fill="#FFDE17" transform="translate(737,835)"/>
<path d="M0 0 C0.6875 1.8125 0.6875 1.8125 1 4 C0.0246803 5.02408568 -0.98198643 6.01834406 -2 7 C-2.4125 8.0725 -2.825 9.145 -3.25 10.25 C-5.05530972 14.82670409 -8.40446988 17.75909751 -12 21 C-12.66 20.67 -13.32 20.34 -14 20 C-13.38511719 19.26394531 -12.77023437 18.52789063 -12.13671875 17.76953125 C-11.32847656 16.79371094 -10.52023437 15.81789063 -9.6875 14.8125 C-8.88699219 13.84957031 -8.08648438 12.88664063 -7.26171875 11.89453125 C-4.33727559 8.1518501 -2.05640278 4.27099039 0 0 Z " fill="#FEFECF" transform="translate(770,796)"/>
<path d="M0 0 C0.33 0.66 0.66 1.32 1 2 C0.69449219 2.845625 0.38898437 3.69125 0.07421875 4.5625 C-1.2586154 8.82756928 -1.25700051 12.56659922 -1.1875 17 C-1.18685547 17.78117188 -1.18621094 18.56234375 -1.18554688 19.3671875 C-1.15285884 23.68200826 -0.85085228 27.75254543 0 32 C-2.75773288 28.87393041 -3.38304055 26.89825316 -3.3984375 22.75390625 C-3.40230469 21.75166016 -3.40617188 20.74941406 -3.41015625 19.71679688 C-3.39855469 18.67587891 -3.38695312 17.63496094 -3.375 16.5625 C-3.38660156 15.52544922 -3.39820313 14.48839844 -3.41015625 13.41992188 C-3.37409261 4.06140777 -3.37409261 4.06140777 0 0 Z " fill="#0503D0" transform="translate(790,836)"/>
<path d="M0 0 C4.29 0 8.58 0 13 0 C12.67 0.66 12.34 1.32 12 2 C9.69 2 7.38 2 5 2 C5.33 2.66 5.66 3.32 6 4 C7.32 4 8.64 4 10 4 C10.33 6.31 10.66 8.62 11 11 C9.72096489 10.11591635 8.45211113 9.21709571 7.1875 8.3125 C6.47980469 7.81363281 5.77210938 7.31476562 5.04296875 6.80078125 C3 5 3 5 0 0 Z " fill="#4BEB15" transform="translate(744,728)"/>
<path d="M0 0 C-0.33 0.66 -0.66 1.32 -1 2 C-3.31470912 2.72870472 -5.6505947 3.39239518 -8 4 C-8.99 4.33 -9.98 4.66 -11 5 C-11 4.34 -11 3.68 -11 3 C-13.31 3 -15.62 3 -18 3 C-18 2.67 -18 2.34 -18 2 C-12.12116651 -0.61281488 -6.29268272 -0.18328202 0 0 Z " fill="#BF1805" transform="translate(747,888)"/>
<path d="M0 0 C0.66 0.33 1.32 0.66 2 1 C3.26761762 5.29581527 4 8.50944298 4 13 C4.66 13 5.32 13 6 13 C6.33 14.65 6.66 16.3 7 18 C2.37219391 13.49397828 -0.33151662 10.5511371 -1 4 C-0.5625 1.625 -0.5625 1.625 0 0 Z " fill="#FCEA0D" transform="translate(761,859)"/>
<path d="M0 0 C0.66 0 1.32 0 2 0 C2 0.99 2 1.98 2 3 C1.34 3 0.68 3 0 3 C-0.09152344 3.57234375 -0.18304687 4.1446875 -0.27734375 4.734375 C-1.17688458 7.55455705 -2.56952241 9.07584262 -4.5625 11.25 C-5.20316406 11.95640625 -5.84382812 12.6628125 -6.50390625 13.390625 C-6.99761719 13.92171875 -7.49132812 14.4528125 -8 15 C-8.66 14.67 -9.32 14.34 -10 14 C-7.01091632 8.98851502 -3.97095506 4.29292439 0 0 Z " fill="#000047" transform="translate(817,796)"/>
<path d="M0 0 C4.54109672 4.26587874 8.24735246 9.03612328 12 14 C10.68 14.33 9.36 14.66 8 15 C0 3.28571429 0 3.28571429 0 0 Z " fill="#BEFE0B" transform="translate(753,738)"/>
<path d="M0 0 C0.66 1.32 1.32 2.64 2 4 C-1.53684211 7.78947368 -1.53684211 7.78947368 -4.0625 8.9375 C-6.71847699 10.39400351 -7.51087821 12.41022298 -9 15 C-9.99 15.66 -10.98 16.32 -12 17 C-9.32345435 11.44102057 -6.43858236 7.32477256 -2 3 C-1.34 2.01 -0.68 1.02 0 0 Z " fill="#38F7F6" transform="translate(794,794)"/>
<path d="M0 0 C1.9375 1.125 1.9375 1.125 4 3 C4.75 6.1875 4.75 6.1875 5 9 C5.66 9 6.32 9 7 9 C6.67 9.66 6.34 10.32 6 11 C2.04 9.35 -1.92 7.7 -6 6 C-3.3333581 4.66667905 -1.83319697 5.32897967 1 6 C0.67 4.02 0.34 2.04 0 0 Z " fill="#04F83C" transform="translate(784,883)"/>
<path d="M0 0 C0 0.33 0 0.66 0 1 C-1.6396875 1.2165625 -1.6396875 1.2165625 -3.3125 1.4375 C-6.93122987 1.88288104 -6.93122987 1.88288104 -10 3 C-12.48046875 2.66015625 -12.48046875 2.66015625 -15.1875 2.0625 C-16.08855469 1.86785156 -16.98960937 1.67320312 -17.91796875 1.47265625 C-18.60503906 1.31667969 -19.29210937 1.16070313 -20 1 C-13.82760241 -2.52509388 -6.75112637 -1.14912789 0 0 Z " fill="#DD74D4" transform="translate(788,910)"/>
<path d="M0 0 C0 3 0 3 -1 6 C-1.66 6 -2.32 6 -3 6 C-3.66 7.65 -4.32 9.3 -5 11 C-5.66 11 -6.32 11 -7 11 C-7.12375 11.78375 -7.2475 12.5675 -7.375 13.375 C-8 16 -8 16 -10 18 C-10 16.35 -10 14.7 -10 13 C-9.34 13 -8.68 13 -8 13 C-8 12.01 -8 11.02 -8 10 C-7.34 10 -6.68 10 -6 10 C-6 8.35 -6 6.7 -6 5 C-5.01 4.67 -4.02 4.34 -3 4 C-1.31461399 2.00334686 -1.31461399 2.00334686 0 0 Z " fill="#0301A8" transform="translate(803,814)"/>
<path d="M0 0 C1.34123691 3.99227549 1.07381818 8.03522742 1 12.1875 C0.95432216 14.79798858 0.95277989 17.38813791 1 20 C1.33 20.33 1.66 20.66 2 21 C2.04080783 22.99958364 2.04254356 25.00045254 2 27 C-0.91543713 24.08456287 -1.12696791 21.60051176 -1.1328125 17.65625 C-1.13410156 16.82222656 -1.13539063 15.98820313 -1.13671875 15.12890625 C-1.13285156 14.26136719 -1.12898437 13.39382813 -1.125 12.5 C-1.12886719 11.63246094 -1.13273438 10.76492188 -1.13671875 9.87109375 C-1.13542969 9.03707031 -1.13414062 8.20304688 -1.1328125 7.34375 C-1.13168457 6.58255859 -1.13055664 5.82136719 -1.12939453 5.03710938 C-1 3 -1 3 0 0 Z " fill="#CC0D0A" transform="translate(715,903)"/>
<path d="M0 0 C1.32 0.33 2.64 0.66 4 1 C4.11085938 1.55558594 4.22171875 2.11117187 4.3359375 2.68359375 C5.36608229 6.27698116 7.2580452 9.38839796 9.0390625 12.66015625 C10 15 10 15 9 18 C7.68462636 15.56401192 6.37260857 13.1263175 5.0625 10.6875 C4.68931641 9.99720703 4.31613281 9.30691406 3.93164062 8.59570312 C3.57392578 7.92861328 3.21621094 7.26152344 2.84765625 6.57421875 C2.51773682 5.96151123 2.18781738 5.34880371 1.84790039 4.7175293 C1 3 1 3 0 0 Z " fill="#CE0B0B" transform="translate(738,737)"/>
<path d="M0 0 C1.65 0 3.3 0 5 0 C5.268125 0.969375 5.53625 1.93875 5.8125 2.9375 C6.204375 3.948125 6.59625 4.95875 7 6 C7.99 6.33 8.98 6.66 10 7 C11.1875 10.5625 11.1875 10.5625 12 14 C7.76014063 9.88862122 3.72154258 5.59026002 0 1 C0 0.67 0 0.34 0 0 Z " fill="#0021E9" transform="translate(764,736)"/>
<path d="M0 0 C0.66 0 1.32 0 2 0 C1.37240135 2.92879371 0.41377341 5.36095629 -1 8 C-5.67461851 8.32613618 -8.16674383 7.70582788 -12 5 C-8.18510326 3.53273202 -5.70988378 4.56663581 -2 6 C-1.34 4.02 -0.68 2.04 0 0 Z " fill="#0305A4" transform="translate(818,910)"/>
<path d="M0 0 C0.33 0 0.66 0 1 0 C0.47594437 6.69007182 -0.10463925 13.3487487 -1 20 C-1.33 20 -1.66 20 -2 20 C-2.05425226 17.60385874 -2.09379027 15.20896147 -2.125 12.8125 C-2.14175781 12.13896484 -2.15851562 11.46542969 -2.17578125 10.77148438 C-2.21538674 6.71192193 -1.80020002 3.65001185 0 0 Z " fill="#FFD413" transform="translate(728,903)"/>
<path d="M0 0 C1.93559313 -0.13504138 3.873872 -0.23201129 5.8125 -0.3125 C6.89144531 -0.37050781 7.97039063 -0.42851563 9.08203125 -0.48828125 C12 0 12 0 13.88671875 2.51953125 C14.25410156 3.33808594 14.62148438 4.15664063 15 5 C12.48329792 4.58054965 10.34014107 4.17555668 8.0625 3 C5.42847588 1.7228974 2.88515352 1.39343003 0 1 C0 0.67 0 0.34 0 0 Z " fill="#4EEAC7" transform="translate(752,889)"/>
<path d="M0 0 C0.99 0.495 0.99 0.495 2 1 C2.4140625 4.16015625 2.4140625 4.16015625 2.625 8.0625 C2.69976563 9.35285156 2.77453125 10.64320313 2.8515625 11.97265625 C2.90054688 12.97167969 2.94953125 13.97070312 3 15 C2.01 15.33 1.02 15.66 0 16 C0 10.72 0 5.44 0 0 Z " fill="#F1FDB6" transform="translate(776,766)"/>
<path d="M0 0 C3.48384633 1.74192316 4.63133666 5.48488667 6 9 C6.56197383 11.70021571 6.80276292 14.23868084 7 17 C4.18167487 15.59083743 3.97406539 13.92219617 3 11 C3 10.01 3 9.02 3 8 C2.34 8 1.68 8 1 8 C0.67 5.36 0.34 2.72 0 0 Z " fill="#0AF944" transform="translate(768,747)"/>
<path d="M0 0 C2.74792483 3.40219265 6 7.48464588 6 12 C3.53199953 10.84826645 1.95216435 9.95216435 0 8 C-0.26991906 5.31160615 -0.08737357 2.70858064 0 0 Z " fill="#D8EF12" transform="translate(749,949)"/>
<path d="M0 0 C2.91193737 1.45596868 3.63866015 3.60838398 5.1875 6.4375 C5.73792969 7.42621094 6.28835938 8.41492188 6.85546875 9.43359375 C7.23316406 10.28050781 7.61085938 11.12742187 8 12 C7.67 12.66 7.34 13.32 7 14 C4.5 11.75 4.5 11.75 2 9 C2 7.68 2 6.36 2 5 C1.34 5 0.68 5 0 5 C0 3.35 0 1.7 0 0 Z " fill="#17D8EF" transform="translate(761,949)"/>
<path d="M0 0 C1.35814777 4.0744433 -0.05254238 6.81468116 -1.4375 10.6875 C-1.68048828 11.38939453 -1.92347656 12.09128906 -2.17382812 12.81445312 C-2.7744944 14.54578532 -3.38619719 16.27328137 -4 18 C-4.33 18 -4.66 18 -5 18 C-5.67090715 10.75420281 -3.58125682 6.24161903 0 0 Z " fill="#18D3FE" transform="translate(780,830)"/>
<path d="M0 0 C3.91939465 3.80411834 7.49102731 7.81576108 11 12 C10.01 12.495 10.01 12.495 9 13 C8.34 12.67 7.68 12.34 7 12 C7 11.34 7 10.68 7 10 C6.34 10 5.68 10 5 10 C2.830717 6.8364623 1.33250791 3.5875213 0 0 Z " fill="#410001" transform="translate(722,941)"/>
<path d="M0 0 C0.99 0 1.98 0 3 0 C4.7890625 2.3359375 4.7890625 2.3359375 6.625 5.375 C7.23601563 6.37273438 7.84703125 7.37046875 8.4765625 8.3984375 C9.36054614 9.90800957 10.21766568 11.43533137 11 13 C7.13665296 11.50423511 5.53441365 9.3299519 3.25 5.9375 C2.63640625 5.03902344 2.0228125 4.14054688 1.390625 3.21484375 C0 1 0 1 0 0 Z " fill="#DFE82D" transform="translate(768,877)"/>
<path d="M0 0 C1.81325551 0.11351517 3.62563357 0.24112961 5.4375 0.375 C6.95150391 0.47941406 6.95150391 0.47941406 8.49609375 0.5859375 C9.73552734 0.79089844 9.73552734 0.79089844 11 1 C11.33 1.66 11.66 2.32 12 3 C7.71 3 3.42 3 -1 3 C-0.67 2.01 -0.34 1.02 0 0 Z " fill="#033608" transform="translate(746,725)"/>
<path d="M0 0 C0.66 0 1.32 0 2 0 C2.66 1.98 3.32 3.96 4 6 C5.32 5.67 6.64 5.34 8 5 C8.33 7.31 8.66 9.62 9 12 C4.33716394 8.48417174 1.27789598 5.96351455 0 0 Z " fill="#4EDE08" transform="translate(753,956)"/>
<path d="M0 0 C4.08596252 1.52763464 5.79826179 4.11084191 8.25 7.625 C8.95640625 8.62789062 9.6628125 9.63078125 10.390625 10.6640625 C11.18726563 11.82035156 11.18726563 11.82035156 12 13 C11.01 13.495 11.01 13.495 10 14 C6 9.25 6 9.25 6 7 C5.01 6.67 4.02 6.34 3 6 C1.3125 2.9375 1.3125 2.9375 0 0 Z " fill="#BFF5FD" transform="translate(777,890)"/>
<path d="M0 0 C6.75 0.75 6.75 0.75 9 3 C8.01 3 7.02 3 6 3 C6 4.65 6 6.3 6 8 C3.87961365 5.38485683 1.86908256 2.80362384 0 0 Z " fill="#1DF8CF" transform="translate(779,890)"/>
<path d="M0 0 C0.66 0 1.32 0 2 0 C0.45730076 4.72065967 -1.07794619 9.41664092 -3 14 C-3.33 14 -3.66 14 -4 14 C-4 11.69 -4 9.38 -4 7 C-3.34 7 -2.68 7 -2 7 C-2 5.68 -2 4.36 -2 3 C-1.34 3 -0.68 3 0 3 C0 2.01 0 1.02 0 0 Z " fill="#CAFEFE" transform="translate(769,825)"/>
<path d="M0 0 C3.40762715 2.23258331 5.02038195 4.47111565 7 8 C7.556875 8.721875 8.11375 9.44375 8.6875 10.1875 C10 12 10 12 10 14 C6.16317727 12.72105909 5.92957641 11.47323753 4 8 C2.9171875 6.4221875 2.9171875 6.4221875 1.8125 4.8125 C0 2 0 2 0 0 Z " fill="#FCFC5F" transform="translate(748,834)"/>
<path d="M0 0 C1.65 0.33 3.3 0.66 5 1 C3.35 2.98 1.7 4.96 0 7 C-0.66 5.68 -1.32 4.36 -2 3 C-1.34 2.01 -0.68 1.02 0 0 Z " fill="#EF1800" transform="translate(731,892)"/>
<path d="M0 0 C3.25516428 3.16474305 6.32008793 6.32752791 9 10 C9 10.66 9 11.32 9 12 C7.1875 11.875 7.1875 11.875 5 11 C3.9349985 9.03384339 2.93166826 7.03273074 2 5 C1.34 4.67 0.68 4.34 0 4 C0 2.68 0 1.36 0 0 Z " fill="#14D1FE" transform="translate(798,777)"/>
<path d="M0 0 C2.97 0.495 2.97 0.495 6 1 C3.38485683 3.12038635 0.80362384 5.13091744 -2 7 C-1.125 2.25 -1.125 2.25 0 0 Z " fill="#16002F" transform="translate(776,913)"/>
<path d="M0 0 C1.19126781 3.57380342 0.7349445 5.50883302 0.0625 9.1875 C-0.13214844 10.27417969 -0.32679688 11.36085938 -0.52734375 12.48046875 C-0.68332031 13.31191406 -0.83929687 14.14335938 -1 15 C-3.35273568 11.47089647 -3.40753493 10.15685632 -3 6 C-1.5 2.625 -1.5 2.625 0 0 Z " fill="#C3FEF4" transform="translate(764,839)"/>
<path d="M0 0 C3.87909417 1.47138055 5.01056241 3.45361125 7 7 C8.58245275 8.75149165 8.58245275 8.75149165 10 10 C9.67 10.66 9.34 11.32 9 12 C7.67837119 10.75965588 6.36799547 9.50731374 5.0625 8.25 C4.33160156 7.55390625 3.60070312 6.8578125 2.84765625 6.140625 C0.99482354 3.99400275 0.39228435 2.76467068 0 0 Z " fill="#0402A2" transform="translate(806,772)"/>
<path d="M0 0 C1.32 0 2.64 0 4 0 C5.75 2 5.75 2 7 4 C6.34 5.32 5.68 6.64 5 8 C4.16382818 6.8562364 3.33113541 5.70992861 2.5 4.5625 C2.0359375 3.92441406 1.571875 3.28632812 1.09375 2.62890625 C0 1 0 1 0 0 Z " fill="#1EF6F6" transform="translate(787,900)"/>
<path d="M0 0 C5.80205656 5.64524422 5.80205656 5.64524422 8 9 C8 9.66 8 10.32 8 11 C4.71573897 9.94434467 3.42848444 8.38339648 1.75 5.5 C0 2 0 2 0 0 Z " fill="#01FB57" transform="translate(776,872)"/>
<path d="M0 0 C0.33 0.66 0.66 1.32 1 2 C2.32 1.34 3.64 0.68 5 0 C3.4169423 4.2742558 0.49431596 6.26531794 -3 9 C-2 6 -1 3 0 0 Z " fill="#FBFC50" transform="translate(755,811)"/>
<path d="M0 0 C3.2542015 2.83430453 4.5206753 4.68607774 5 9 C3.35 8.67 1.7 8.34 0 8 C0.99 7.34 1.98 6.68 3 6 C2.34 6 1.68 6 1 6 C0.67 4.02 0.34 2.04 0 0 Z " fill="#0FE8B4" transform="translate(788,886)"/>
<path d="M0 0 C1.21386936 3.64160808 0.6674695 4.33165469 -0.9375 7.6875 C-1.31777344 8.49574219 -1.69804688 9.30398438 -2.08984375 10.13671875 C-2.39019531 10.75160156 -2.69054687 11.36648438 -3 12 C-3.33 12 -3.66 12 -4 12 C-4 10.35 -4 8.7 -4 7 C-3.34 7 -2.68 7 -2 7 C-2.04125 6.21625 -2.0825 5.4325 -2.125 4.625 C-2 2 -2 2 0 0 Z " fill="#380000" transform="translate(749,784)"/>
<path d="M0 0 C3.96 0 7.92 0 12 0 C12 0.33 12 0.66 12 1 C9.36 1.33 6.72 1.66 4 2 C4.33 3.32 4.66 4.64 5 6 C3.31237149 4.3545622 1.6459651 2.68711423 0 1 C0 0.67 0 0.34 0 0 Z " fill="#0214D4" transform="translate(758,728)"/>
<path d="M0 0 C0.99 0.33 1.98 0.66 3 1 C1.875 2.5625 1.875 2.5625 0 4 C-3.125 3.8125 -3.125 3.8125 -6 3 C-6.33 2.34 -6.66 1.68 -7 1 C-4.69 1.33 -2.38 1.66 0 2 C0 1.34 0 0.68 0 0 Z " fill="#BB120B" transform="translate(791,914)"/>
<path d="M0 0 C1.4540625 0.0309375 1.4540625 0.0309375 2.9375 0.0625 C0.32235683 2.18288635 -2.25887616 4.19341744 -5.0625 6.0625 C-3.98897059 0.08140756 -3.98897059 0.08140756 0 0 Z " fill="#1FF7F5" transform="translate(755.0625,912.9375)"/>
<path d="M0 0 C2.475 0.495 2.475 0.495 5 1 C5.33 1.99 5.66 2.98 6 4 C6.66 4.33 7.32 4.66 8 5 C7.67 5.99 7.34 6.98 7 8 C5.83035398 6.8572081 4.66435444 5.71068285 3.5 4.5625 C2.8503125 3.92441406 2.200625 3.28632812 1.53125 2.62890625 C0 1 0 1 0 0 Z " fill="#06FEDF" transform="translate(755,949)"/>
<path d="M0 0 C1.12894876 0.93274109 2.25300876 1.87140122 3.375 2.8125 C4.00148438 3.33457031 4.62796875 3.85664062 5.2734375 4.39453125 C7 6 7 6 9 9 C6.66471585 8.82701599 5.30822418 8.29774631 3.62109375 6.66796875 C0 2.42788462 0 2.42788462 0 0 Z " fill="#E42900" transform="translate(739,947)"/>
<path d="M0 0 C1.98 0 3.96 0 6 0 C6 1.32 6 2.64 6 4 C3.69 3.34 1.38 2.68 -1 2 C-0.67 1.34 -0.34 0.68 0 0 Z " fill="#F2E22D" transform="translate(788,910)"/>
<path d="M0 0 C2.60608273 2.5162178 4.89381685 5.05134359 7 8 C6.67 8.66 6.34 9.32 6 10 C4.5 8.625 4.5 8.625 3 7 C3 6.34 3 5.68 3 5 C2.01 4.67 1.02 4.34 0 4 C0 2.68 0 1.36 0 0 Z " fill="#E62E00" transform="translate(736,835)"/>
<path d="M0 0 C1.32 0.33 2.64 0.66 4 1 C2.35 2.98 0.7 4.96 -1 7 C-1.625 5.1875 -1.625 5.1875 -2 3 C-1.34 2.01 -0.68 1.02 0 0 Z " fill="#D5FFFE" transform="translate(781,806)"/>
<path d="M0 0 C0.99 0.33 1.98 0.66 3 1 C3 1.99 3 2.98 3 4 C3.66 4 4.32 4 5 4 C5 5.98 5 7.96 5 10 C2.35534962 6.8745041 1.15585285 3.91211733 0 0 Z " fill="#08FED4" transform="translate(768,745)"/>
<path d="M0 0 C2 0 2 0 4.0625 1.6875 C6.17875625 4.21335423 6.64119018 5.77071161 7 9 C4.03595495 6.19195732 1.55500981 3.81684226 0 0 Z " fill="#C90B0C" transform="translate(731,844)"/>
<path d="M0 0 C0.66 0 1.32 0 2 0 C2.66 1.65 3.32 3.3 4 5 C2.02 5.33 0.04 5.66 -2 6 C-1.49396008 3.83125748 -1.00016187 2.00032373 0 0 Z " fill="#FAFD23" transform="translate(744,830)"/>
<path d="M0 0 C0.33 0.99 0.66 1.98 1 3 C-0.65 4.65 -2.3 6.3 -4 8 C-4 6.68 -4 5.36 -4 4 C-3.34 4 -2.68 4 -2 4 C-1.34 2.68 -0.68 1.36 0 0 Z " fill="#CA0B0B" transform="translate(724,822)"/>
<path d="M0 0 C2.5 2.3125 2.5 2.3125 5 5 C5 5.99 5 6.98 5 8 C2.5 6.25 2.5 6.25 0 4 C0 2.68 0 1.36 0 0 Z " fill="#14D4B7" transform="translate(757,728)"/>
<path d="M0 0 C0 0.66 0 1.32 0 2 C-6.28571429 4.42857143 -6.28571429 4.42857143 -10 3 C-6.64781163 0.76520776 -4.01177204 0 0 0 Z " fill="#FCCB18" transform="translate(748,889)"/>
<path d="M0 0 C2.0343459 1.41519715 2.90410393 2.54982123 3.421875 4.98046875 C3.66273952 6.98176954 3.83532741 8.9909944 4 11 C2 10 2 10 0.875 7.1875 C0 4 0 4 0 0 Z " fill="#02016E" transform="translate(788,858)"/>
<path d="M0 0 C1.32 0.99 2.64 1.98 4 3 C2.25 7.875 2.25 7.875 0 9 C0 6.03 0 3.06 0 0 Z " fill="#0602B8" transform="translate(818,787)"/>
<path d="M0 0 C2.475 0.495 2.475 0.495 5 1 C5.33 1.99 5.66 2.98 6 4 C4.35 3.67 2.7 3.34 1 3 C0.67 2.01 0.34 1.02 0 0 Z " fill="#DFFE07" transform="translate(759,749)"/>
</svg>
